<svg width="309" height="146" fill="none" xmlns="http://www.w3.org/2000/svg"><g clip-path="url(#clip0_2248_12858)" filter="url(#filter0_d_2248_12858)" fill="#408F95"><path d="M67.947 15.335a.701.701 0 01-.633-.396c-.376-.776-.524-1.552-.447-2.3.398-3.83 6.37-5.74 10.732-7.133 4.603-1.47 9.478-2.316 14.484-2.512.371-.027.715.282.73.673a.703.703 0 01-.675.727c-4.881.19-9.626 1.009-14.108 2.44-3.54 1.134-9.467 3.028-9.767 5.951-.05.494.054 1.015.316 1.557a.697.697 0 01-.632 1.003v-.01zm78.654 4.279h-.082a18.807 18.807 0 01-3.354-.7c-1.456-.444-2.541-.987-2.999-1.214l-.153-.076a195.051 195.051 0 00-15.231-6.57c-4.728-1.8-8.469-3.227-13.498-4.474a85.65 85.65 0 00-16.332-2.392.699.699 0 11.07-1.394 86.79 86.79 0 0116.606 2.435c5.115 1.27 8.884 2.707 13.661 4.524a196.991 196.991 0 0115.34 6.612l.169.082c.469.233 1.445.721 2.787 1.133a17.41 17.41 0 003.103.646.696.696 0 01-.082 1.388h-.005z"/><path d="M80.925 27.707a.756.756 0 01-.321-.075 91.657 91.657 0 01-4.712-2.599c-.453-.27-1.298-.77-2.389-1.502a30.346 30.346 0 01-1.063-.738 46.156 46.156 0 01-3.834-3.043.84.84 0 01-.093-.103 12.2 12.2 0 00-.272-.33c-1.233-1.487-2.394-3.033-1.909-4.14.153-.352.53-.78 1.434-.83a.7.7 0 11.082 1.394 1.109 1.109 0 00-.229.033c0 .25.257.906 1.707 2.653.11.13.196.238.262.32a46.309 46.309 0 003.67 2.907c.365.26.709.494 1.03.716 1.059.71 1.882 1.199 2.324 1.464a92.41 92.41 0 004.635 2.555c.344.18.48.597.3.944a.708.708 0 01-.621.38v-.006zm27.96 4.074c-6.86 0-13.448-.77-13.53-.781a113.408 113.408 0 01-12.406-2.257.697.697 0 11.327-1.356c4.04.971 8.164 1.72 12.248 2.224.088.011 9.364 1.096 17.282.673a55.55 55.55 0 007.4-.895c1.096-.206 1.691-.353 4.183-.955l3.016-.732c.987-.239 1.848-.456 2.612-.646 2.279-.57 3.785-.949 5.246-1.052a21.687 21.687 0 016.555.553.694.694 0 01.518.841.695.695 0 01-.845.515 20.47 20.47 0 00-6.13-.515c-1.341.092-2.721.44-5 1.015-.769.195-1.636.412-2.624.65l-3.015.733c-2.46.596-3.12.76-4.254.97a58.23 58.23 0 01-7.586.917c-1.314.07-2.661.098-3.997.098zm39.924-12.118a.698.698 0 01-.207-1.367c1.636-.499 10.165-3.048 17.195-4.079 3.43-.504 5.944-.553 8.681-.174a27.38 27.38 0 012.662.51.698.698 0 11-.339 1.356c-.823-.2-1.674-.363-2.524-.482-2.596-.364-4.996-.315-8.284.168-6.926 1.02-15.368 3.536-16.987 4.036a.693.693 0 01-.208.032h.011zm20.2 25.387c-.05 0-.099 0-.148-.017-3.141-.673-8.485-3.26-10.437-5.045-1.686-1.253-3.033-2.245-4.178-3.091-3.964-2.924-5.606-4.128-10.814-8.49a.7.7 0 01-.087-.981.708.708 0 01.987-.087c5.175 4.329 6.806 5.533 10.749 8.435 1.156.851 2.514 1.85 4.215 3.119.022.016.038.032.06.048 1.756 1.628 6.888 4.101 9.805 4.725.382.082.622.45.54.83a.704.704 0 01-.687.553h-.005z"/><path d="M169.009 45.05a.704.704 0 01-.513-.223c-1.827-1.937-4.172-5.197-4.952-9.731-.234-1.356-.779-4.53.502-8.137 1.173-3.292 3.218-5.196 5.584-7.404a31.853 31.853 0 017.024-4.941.705.705 0 01.949.292.697.697 0 01-.294.944 30.45 30.45 0 00-6.713 4.725c-2.324 2.164-4.161 3.878-5.219 6.85-1.162 3.266-.66 6.19-.442 7.437.72 4.193 2.896 7.215 4.592 9.01a.693.693 0 01-.033.987.717.717 0 01-.48.19h-.005zm-9.8-21.823a.684.684 0 01-.545-.26.695.695 0 01.103-.982 19.086 19.086 0 013.888-2.425 19.41 19.41 0 015.268-1.6.699.699 0 11.213 1.383 17.867 17.867 0 00-8.491 3.738.709.709 0 01-.442.157l.006-.01zm2.874 15.161a.726.726 0 01-.431-.146c-1.516-1.166-4.21-3.678-5.17-7.4-.294-1.149-.916-3.547.169-5.993.153-.342.333-.678.535-.993a.7.7 0 01.97-.206c.328.212.42.64.208.966-.164.25-.311.52-.431.797-.889 2.007-.371 4.009-.093 5.088.856 3.32 3.294 5.587 4.668 6.64a.696.696 0 01.126.981.695.695 0 01-.557.272l.006-.006zM92.89 23.395c-.147 0-.294 0-.447-.01-3.19-.136-5.448-1.666-6.511-2.567a.694.694 0 01-.082-.981.703.703 0 01.987-.082c.927.787 2.896 2.116 5.66 2.235 2.776.114 4.663-1.041 5.912-1.811.682-.424.944-.679 1.03-.792-.206-.234-1.1-.64-4.002-1.156-2.607-.46-5.35-.575-8.153-.336a.696.696 0 11-.12-1.389c2.923-.25 5.792-.13 8.518.353 2.667.472 5.072 1.02 5.187 2.462.054.657-.464 1.27-1.724 2.045-1.248.77-3.299 2.03-6.26 2.03h.005z"/><path d="M80.555 24.41a.713.713 0 01-.617-.358.694.694 0 01.273-.95 16.098 16.098 0 005.339-4.708 15.518 15.518 0 001.821-3.325.703.703 0 01.911-.39c.36.14.535.547.393.905a17.155 17.155 0 01-1.985 3.618c-1.51 2.105-3.463 3.83-5.797 5.12a.697.697 0 01-.338.088zm-6.452-13.86a1.116 1.116 0 011.287-.911 1.111 1.111 0 11-.37 2.191 1.111 1.111 0 01-.917-1.28zm31.466 26.33a26.19 26.19 0 01-3.599-.293 25.804 25.804 0 01-4.76-1.193c-5.672-2.007-8.775-3.737-13.912-6.601a.694.694 0 01-.267-.95.701.701 0 01.954-.265c5.246 2.923 8.136 4.534 13.699 6.503a24.82 24.82 0 004.499 1.129 24.95 24.95 0 003.365.276c1.281-.049 1.897-.222 2.175-.347-.343-.233-1.221-.689-3.419-1.378a.697.697 0 11.42-1.329c3.534 1.107 4.728 1.866 4.565 2.892-.208 1.28-2.225 1.502-3.725 1.562l.005-.006z"/><path d="M107.712 33.831c-.436 0-.85-.021-1.243-.043-5.633-.347-10.181-1.54-10.372-1.595a63.498 63.498 0 01-6.32-2.045.7.7 0 01-.404-.9.707.707 0 01.905-.401 62.529 62.529 0 006.179 2.001c.185.049 4.597 1.21 10.094 1.546 1.265.076 2.628.109 4.226-.456a8.953 8.953 0 002.443-1.318.7.7 0 01.982.136.693.693 0 01-.136.976 10.352 10.352 0 01-2.82 1.52c-1.303.46-2.486.58-3.539.58h.005z"/><path d="M130.884 36.88c-1.832 0-3.654-.18-5.459-.537a28.321 28.321 0 01-11.136-4.925.698.698 0 01-.147-.977.707.707 0 01.982-.146 26.82 26.82 0 0010.574 4.68 26.56 26.56 0 008.643.288c-.109-.933-.425-2.587-1.298-3.78-.25-.342-.665-.912-1.396-1.373-.19-.125-.338-.195-.736-.39l-.278-.136c-.796-.396-1.44-.727-1.865-.95a.697.697 0 01-.294-.943.703.703 0 01.948-.293c.42.223 1.053.548 1.838.933l.273.136c.42.206.611.298.872.466.955.608 1.489 1.335 1.773 1.725 1.358 1.844 1.587 4.421 1.625 5.164a.703.703 0 01-.595.727 28.328 28.328 0 01-4.33.336l.006-.005zm6.119-22.028c-1.031 0-2.127-.07-3.349-.2a.696.696 0 01-.621-.77.695.695 0 01.774-.62c1.178.126 2.225.19 3.207.196a.7.7 0 01.698.7.7.7 0 01-.704.694h-.005zm.621-7.925a.758.758 0 01-.218-.033c-.785-.26-1.57-.526-2.356-.797-2.165-.743-4.406-1.513-6.729-2.023-10.111-2.045-19.96-2.924-29.263-2.61a.703.703 0 01-.725-.672.699.699 0 01.676-.721c9.407-.32 19.37.564 29.601 2.636 2.416.531 4.69 1.313 6.893 2.072.78.266 1.56.537 2.339.792.371.12.568.515.448.879a.706.706 0 01-.666.482v-.005zM84.061 5.294a.698.698 0 01-.638-.407.698.698 0 01.349-.922 45.399 45.399 0 015.502-2.072 45.491 45.491 0 017.417-1.6.697.697 0 11.18 1.383A44.412 44.412 0 0084.35 5.234a.68.68 0 01-.289.066v-.006z"/><path d="M97.967 3.39a.716.716 0 01-.594-.32.698.698 0 01.213-.965c.147-.092.365-.228.632-.38a13.226 13.226 0 015.917-1.67.7.7 0 01.731.667.7.7 0 01-.671.726c-.818.033-1.625.152-2.41.348-1.015.254-1.985.64-2.88 1.139-.24.135-.43.255-.567.336a.674.674 0 01-.376.108l.005.011zm9.778.613a.7.7 0 01-.589-.32.7.7 0 01.213-.966 13.122 13.122 0 013.861-1.66 13.226 13.226 0 012.694-.39.697.697 0 11.06 1.394 11.844 11.844 0 00-5.29 1.486c-.24.136-.431.255-.567.337a.686.686 0 01-.376.108l-.006.011zm9.02 1.27a.715.715 0 01-.594-.32.699.699 0 01.212-.966c.148-.092.366-.228.633-.38a13.312 13.312 0 015.922-1.67.698.698 0 11.06 1.394 11.836 11.836 0 00-5.289 1.486c-.24.136-.431.255-.568.336a.672.672 0 01-.376.109v.01zM130.17 34.07h-.017c-2.399-.06-4.679-.596-6.767-1.605a16.132 16.132 0 01-2.596-1.568.693.693 0 01-.142-.976.702.702 0 01.982-.141 14.435 14.435 0 002.366 1.432c1.909.917 3.992 1.41 6.19 1.464a.707.707 0 01.687.716.704.704 0 01-.703.684v-.005zm-1.266-2.815a.73.73 0 01-.24-.044l-3.997-1.453a.697.697 0 01-.42-.895.705.705 0 01.9-.418l3.997 1.454c.366.13.551.531.42.895a.703.703 0 01-.66.46zm9.958-16.468a.702.702 0 01-.703-.678.698.698 0 01.681-.716c2.645-.076 3.774-.586 3.96-1.812-.502-1.676-1.789-3.038-3.927-4.155a.697.697 0 01-.294-.944.705.705 0 01.949-.293c2.557 1.335 4.084 3.021 4.662 5.153a.786.786 0 01.022.25c-.294 3.048-3.823 3.151-5.328 3.195h-.022zm29.034 113.883a.707.707 0 01-.578-.303c-.316-.461-.49-.95-.518-1.449-.125-2.451 3.278-4.144 5.764-5.381a32.263 32.263 0 018.279-2.777.706.706 0 01.823.553.698.698 0 01-.556.82 31.105 31.105 0 00-7.918 2.652c-1.898.944-5.067 2.522-4.99 4.063.011.238.103.483.272.727a.698.698 0 01-.578 1.095z"/><path d="M177.374 134.968a.641.641 0 01-.201-.033 43.278 43.278 0 01-3.823-1.356 31.269 31.269 0 01-2.231-1.003 28.518 28.518 0 01-2.53-1.443.924.924 0 01-.109-.087c-.038-.038-.104-.092-.18-.163-.916-.813-1.794-1.681-1.571-2.522.066-.244.278-.673.982-.819a.7.7 0 01.513 1.28c.147.195.441.515 1.014 1.02.065.059.125.108.169.152a26.303 26.303 0 004.483 2.299 40.38 40.38 0 003.692 1.313c.37.114.578.505.469.873a.699.699 0 01-.671.494l-.006-.005z"/><path d="M183.466 135.364c-1.86 0-3.73-.076-5.584-.234a.695.695 0 01-.638-.754.7.7 0 01.758-.634c2.426.2 4.88.271 7.296.2.049 0 5.524-.195 10.067-1.144a32.311 32.311 0 004.188-1.172c.611-.217.944-.352 2.34-.927l1.685-.695c.474-.195.894-.374 1.282-.537 1.221-.515 2.105-.889 3.162-1.16a16.392 16.392 0 014.532-.51.7.7 0 11-.032 1.399 15.338 15.338 0 00-4.145.461c-.96.25-1.8.602-2.967 1.096-.392.168-.818.347-1.298.542l-1.685.695c-1.385.569-1.756.721-2.405.949a34.125 34.125 0 01-4.368 1.22c-4.668.971-10.083 1.167-10.312 1.172-.622.016-1.249.027-1.871.027l-.005.006zm29.759-11.218h-.027a12.158 12.158 0 01-1.178-.108 11.402 11.402 0 01-1.914-.456l-.082-.027a114.254 114.254 0 00-9.429-2.457c-2.907-.624-5.203-1.118-8.224-1.394a49.542 49.542 0 00-9.663.065.699.699 0 11-.142-1.389 51.562 51.562 0 019.936-.065c3.108.282 5.443.787 8.393 1.421 3.201.689 6.413 1.524 9.549 2.49l.103.032c.262.087.878.283 1.685.402.317.049.638.076.955.092a10.829 10.829 0 001.538-.39c.61-.201 1.041-.407 1.205-.483 1.663-.776 5.491-2.197 8.812-3.152 1.876-.542 3.316-.857 5.11-.884.54-.011 1.091.011 1.625.06a.7.7 0 11-.125 1.394c-.491-.044-.987-.06-1.483-.054-1.631.021-2.972.32-4.734.829-3.594 1.037-7.247 2.441-8.589 3.065-.202.092-.687.32-1.374.548-.595.195-1.205.347-1.822.456-.038.005-.076.011-.12.011l-.005-.006zm16.164 12.807a.762.762 0 01-.284-.06l-7.744-3.411a61.242 61.242 0 01-4.133-2.268 65.145 65.145 0 01-2.967-1.887.696.696 0 01-.185-.971.704.704 0 01.976-.185c.949.64 1.925 1.264 2.901 1.85a59.864 59.864 0 004.014 2.202l7.711 3.396a.704.704 0 01.36.922.703.703 0 01-.644.418l-.005-.006z"/><path d="M229.389 136.953a.695.695 0 01-.535-.249 19.086 19.086 0 01-3.277-5.479c-.638-1.649-1.14-2.951-.927-4.659.24-1.931 1.254-3.211 2.536-4.833l.109-.141a18.892 18.892 0 013.697-3.553.698.698 0 11.834 1.123 17.69 17.69 0 00-3.424 3.292l-.109.141c-1.189 1.508-2.051 2.598-2.247 4.144-.169 1.362.234 2.403.845 3.982a17.91 17.91 0 003.043 5.082.693.693 0 01-.534 1.145l-.011.005zm-47.123-5.75c-1.609 0-2.852-.602-3.496-.992a.7.7 0 01-.229-.96.707.707 0 01.966-.228c.578.352 1.777.922 3.315.754 1.538-.168 2.487-.977 3.12-1.514.092-.076.163-.146.223-.2-.376-.087-1.025-.141-1.947-.163a18.226 18.226 0 00-4.7.521.707.707 0 01-.851-.516.702.702 0 01.518-.846 19.653 19.653 0 015.066-.564c1.778.043 3.267.163 3.512 1.193.147.63-.376 1.177-.911 1.633-.67.57-1.914 1.622-3.877 1.839a6.44 6.44 0 01-.709.038v.005z"/><path d="M176.055 132.825a.7.7 0 01-.431-1.253 9.17 9.17 0 002.601-3.119c.327-.64.573-1.323.736-2.034a.702.702 0 01.84-.521.697.697 0 01.524.836 10.468 10.468 0 01-.851 2.349 10.566 10.566 0 01-2.994 3.596.697.697 0 01-.431.146h.006zm-4.281-6.417h-.022a1.363 1.363 0 01-1.342-1.372 1.346 1.346 0 011.38-1.335c.365 0 .703.152.954.413.251.26.388.602.382.96a1.362 1.362 0 01-1.358 1.334h.006zm-.044-1.356s.016.038.044.043c.021 0 .043-.021.043-.043h-.087zm0 0h.087s-.027-.06-.043-.043a.043.043 0 00-.044.043zM189.661 138c-.976 0-1.953-.092-2.912-.277-3.507-.667-5.476-1.399-8.737-2.614a.696.696 0 01-.409-.901.703.703 0 01.906-.407c3.304 1.232 5.12 1.904 8.507 2.55.878.168 1.75.249 2.667.249.649 0 1.303-.048 1.946-.135.399-.055.764-.179.977-.282-.273-.25-.955-.705-2.351-1.302a.699.699 0 11.556-1.28c3.142 1.339 3.431 2.197 3.3 2.853-.207 1.025-1.8 1.329-2.28 1.394-.714.098-1.467.146-2.159.152h-.011zm14.386-2.218a16.924 16.924 0 01-7.799-1.926.698.698 0 01-.294-.944.704.704 0 01.949-.293 15.517 15.517 0 006.457 1.747c1.576.07 3.152-.103 4.684-.515-.196-.597-.512-1.259-.943-1.687-.175-.174-.431-.434-.851-.613-.125-.055-.218-.082-.431-.152l-.174-.055a47.219 47.219 0 01-1.178-.385.699.699 0 11.458-1.323c.262.092.66.222 1.145.38l.175.054c.289.092.409.13.578.206.654.287 1.074.705 1.276.906 1.014 1.014 1.396 2.56 1.488 3.01.071.353-.13.7-.474.808a16.75 16.75 0 01-5.061.782h-.005zm2.072-13.371a.707.707 0 01-.703-.667.706.706 0 01.67-.733 17.38 17.38 0 001.855-.173.701.701 0 01.796.586.698.698 0 01-.589.791c-.611.093-1.265.152-1.996.185h-.033v.011z"/><path d="M208.044 122.232a.698.698 0 01-.043-1.394c1.805-.114 2.71-.7 2.786-1.194.071-.455-.556-1.22-2.099-1.833a.697.697 0 01-.393-.906.704.704 0 01.911-.391c2.061.814 3.174 2.062 2.966 3.347-.212 1.335-1.739 2.219-4.084 2.365h-.044v.006zm-23.302-4.405a.698.698 0 01-.682-.542.7.7 0 01.529-.836c5.863-1.318 11.779-1.692 17.593-1.112a53.71 53.71 0 014.891.716c.382.076.628.44.557.819a.706.706 0 01-.824.554 54.23 54.23 0 00-4.766-.7c-5.661-.564-11.43-.201-17.14 1.085a.766.766 0 01-.153.016h-.005zm-8.371 3.564a.695.695 0 01-.387-1.28 26.61 26.61 0 013.048-1.714 26.162 26.162 0 013.103-1.259c.246-.081.458-.152.606-.195a.706.706 0 01.878.456.699.699 0 01-.459.873c-.141.043-.338.108-.572.184a25.656 25.656 0 00-5.83 2.821.711.711 0 01-.382.114h-.005z"/><path d="M187.092 117.984a.383.383 0 01-.256-.672 7.64 7.64 0 012.089-1.302 7.765 7.765 0 011.526-.467.381.381 0 01.453.304.38.38 0 01-.305.45 6.9 6.9 0 00-1.375.418 7.18 7.18 0 00-1.581.922c-.125.098-.229.19-.3.25a.379.379 0 01-.256.097h.005zm3.654-.114a.398.398 0 01-.327-.179.382.382 0 01.114-.531 15.71 15.71 0 012.1-1.123c.474-.211.954-.396 1.44-.559a.394.394 0 01.49.244.39.39 0 01-.245.489 15.538 15.538 0 00-3.038 1.394c-.141.081-.256.157-.332.206a.371.371 0 01-.207.059h.005zm4.619.006a.385.385 0 01-.229-.695c.082-.059.196-.146.344-.244a11.164 11.164 0 013.233-1.481.383.383 0 01.475.272.384.384 0 01-.273.471 9.924 9.924 0 00-1.374.483 10.09 10.09 0 00-1.947 1.112.398.398 0 01-.229.076v.006zm8.927 14.852h-.054l-3.114-.429a.377.377 0 01-.327-.434.382.382 0 01.436-.325l3.114.428c.212.027.36.223.327.434a.386.386 0 01-.382.331v-.005zm20.025-.635a.564.564 0 01-.311-.092 10.473 10.473 0 01-2.47-2.159c-.938-1.123-1.816-2.181-1.701-3.57.12-1.415 1.205-2.316 2.355-3.27.944-.781 2.007-1.4 3.169-1.828a.58.58 0 01.747.336.575.575 0 01-.338.743 9.766 9.766 0 00-2.83 1.633c-1.042.862-1.866 1.546-1.947 2.484-.077.917.589 1.72 1.434 2.734a9.359 9.359 0 002.203 1.926.575.575 0 01-.311 1.063zm17.173-23.623a.703.703 0 01-.682-.531c-.136-.543-.131-1.058.022-1.536.742-2.343 4.526-2.75 7.286-3.043a32.37 32.37 0 018.731.266.7.7 0 01.578.803.7.7 0 01-.807.575 30.863 30.863 0 00-8.35-.255c-2.105.228-5.633.608-6.096 2.078a1.432 1.432 0 000 .775.7.7 0 01-.682.868z"/><path d="M248.165 117.653a.725.725 0 01-.426-.141 41.21 41.21 0 01-3.108-2.598 28.68 28.68 0 01-1.74-1.714 28 28 0 01-1.865-2.229.882.882 0 01-.071-.12c-.021-.048-.06-.119-.109-.211-.578-1.08-1.096-2.197-.589-2.913.148-.206.497-.532 1.206-.429a.703.703 0 01.594.792.7.7 0 01-.562.586c.066.234.235.635.595 1.313.043.076.076.146.103.195.54.716 1.124 1.411 1.735 2.067a26.036 26.036 0 001.663 1.638 40.914 40.914 0 003.005 2.511c.31.234.365.673.131.977a.707.707 0 01-.557.276h-.005z"/><path d="M283.138 124.439a.732.732 0 01-.262-.049 15.042 15.042 0 00-4.047-1.003c-.987-.098-1.903-.06-3.168 0-.425.021-.889.038-1.402.059l-1.826.065c-1.495.055-1.893.071-2.58.055a34.53 34.53 0 01-4.521-.375c-4.712-.705-9.86-2.403-10.078-2.479a67.175 67.175 0 01-6.92-2.777.698.698 0 11.594-1.264 64.49 64.49 0 006.768 2.718c.049.016 5.246 1.73 9.838 2.419a33.67 33.67 0 004.335.358c.649.011 1.004 0 2.509-.054l1.832-.065c.507-.016.966-.038 1.391-.06 1.325-.06 2.285-.103 3.37.006a16.38 16.38 0 014.428 1.095.697.697 0 01-.261 1.346v.005zm21.158-2.739a.732.732 0 01-.299-.065 13.485 13.485 0 00-1.369-.564c-1.538-.548-2.896-.733-4.728-.868-3.73-.277-7.651-.223-9.124-.103-.223.016-.763.065-1.483.038a12.759 12.759 0 01-1.865-.206.617.617 0 01-.142-.044c-.365-.152-.72-.325-1.063-.51a10.906 10.906 0 01-1.631-1.09l-.071-.054a114.399 114.399 0 00-7.978-5.571c-2.503-1.595-4.483-2.853-7.221-4.16a50.312 50.312 0 00-9.079-3.293.696.696 0 01-.502-.852.7.7 0 01.856-.499c3.228.83 6.37 1.969 9.336 3.385 2.814 1.345 4.827 2.62 7.368 4.242a114.465 114.465 0 018.076 5.641l.088.065c.218.169.719.57 1.434.96.278.152.567.293.861.418a11.008 11.008 0 002.88.136c1.832-.152 5.917-.152 9.363.103 1.953.146 3.409.342 5.099.944.513.179 1.015.39 1.5.618.349.168.496.58.333.933a.7.7 0 01-.633.396h-.006zm-8.071 15.85a.697.697 0 01-.49-.201l-6.064-5.88a62.428 62.428 0 01-5.203-6.357.697.697 0 01.164-.971.706.706 0 01.976.162c.665.928 1.358 1.85 2.072 2.74a62.345 62.345 0 002.988 3.455l6.037 5.858a.692.692 0 01.011.987.698.698 0 01-.501.212l.01-.005z"/><path d="M296.226 137.55a.703.703 0 01-.66-.461 19.06 19.06 0 01-1.151-6.276c-.022-1.768-.033-3.162.764-4.687.905-1.725 2.301-2.576 4.068-3.65l.152-.092a19.095 19.095 0 014.712-2.051.7.7 0 01.867.478.695.695 0 01-.48.862 17.484 17.484 0 00-4.362 1.898l-.153.093c-1.647 1.003-2.836 1.725-3.556 3.108-.638 1.215-.621 2.332-.605 4.025a17.81 17.81 0 001.069 5.82.7.7 0 01-.425.895.726.726 0 01-.235.043l-.005-.005zm-40.214-21.378c-.469 0-.976-.054-1.51-.184-1.909-.477-3.076-1.676-3.605-2.354a.697.697 0 01.12-.982.706.706 0 01.987.119c.42.532 1.342 1.481 2.841 1.855 1.5.375 2.678-.054 3.452-.336.115-.043.208-.076.284-.114-.322-.211-.916-.488-1.772-.824a18.181 18.181 0 00-4.587-1.139.698.698 0 11.164-1.389c1.739.206 3.408.618 4.946 1.231 1.652.657 3.005 1.286 2.874 2.333-.076.64-.763.971-1.429 1.209-.594.217-1.559.57-2.77.57l.005.005z"/><path d="M247.679 115.191a.698.698 0 01-.212-1.362 9.227 9.227 0 003.533-2.023 9.081 9.081 0 001.407-1.649.706.706 0 01.971-.201.697.697 0 01.202.966 10.483 10.483 0 01-1.62 1.904 10.665 10.665 0 01-4.068 2.332.716.716 0 01-.213.033zm-1.532-7.459a1.353 1.353 0 01-1.265-1.844 1.365 1.365 0 011.761-.77 1.354 1.354 0 01.775 1.752 1.348 1.348 0 01-.72.748c-.175.076-.36.114-.545.114h-.006zm-.044-1.367c-.01.022 0 .049.028.055.016.005.049-.006.054-.028l-.082-.032v.005zm0 0l.082.033s0-.049-.027-.054c-.022-.006-.049.005-.055.027v-.006zm15.417 19.078c-.453 0-.867-.076-1.069-.12a14.73 14.73 0 01-2.056-.602c-.921-.336-1.81-.77-2.65-1.274-3.054-1.839-4.641-3.212-7.275-5.479a.695.695 0 01-.071-.987.704.704 0 01.993-.071c2.666 2.295 4.133 3.564 7.084 5.343a14.25 14.25 0 002.41 1.161c.605.222 1.238.407 1.871.548.392.087.779.098 1.014.07-.164-.33-.649-.992-1.745-2.034a.698.698 0 01-.022-.987.708.708 0 01.993-.022c2.47 2.349 2.443 3.25 2.088 3.819-.316.505-.965.64-1.554.64l-.011-.005zm16.17 3.2h-.033a16.832 16.832 0 01-5.721-1.297 16.822 16.822 0 01-5.933-4.231.7.7 0 01.054-.987.705.705 0 01.993.054 15.507 15.507 0 005.437 3.879 15.23 15.23 0 004.57 1.139c.022-.537-.011-1.291-.295-1.904-.103-.222-.256-.553-.578-.873-.098-.093-.174-.152-.349-.288l-.147-.114c-.414-.32-.747-.591-.965-.77a.694.694 0 01-.098-.982.703.703 0 01.987-.097c.213.173.54.439.943.748l.142.114c.24.184.338.266.469.391.513.499.758 1.036.878 1.291.594 1.296.414 2.88.344 3.336a.702.702 0 01-.693.591h-.005zm3.686-12.291c-.049 0-.098 0-.147-.017-.6-.124-1.238-.298-1.936-.52a.7.7 0 11.43-1.329c.655.206 1.244.368 1.8.482a.699.699 0 01-.147 1.384z"/><path d="M283.339 116.677c-.643 0-1.369-.114-2.165-.353a.697.697 0 11.404-1.334c1.734.515 2.786.282 3.032-.152.229-.401-.093-1.34-1.325-2.441a.7.7 0 01-.055-.987.708.708 0 01.993-.054c1.646 1.475 2.252 3.032 1.608 4.165-.431.76-1.314 1.156-2.492 1.156zm-1.32-5.208a.688.688 0 01-.365-.103 53.108 53.108 0 00-4.221-2.305c-5.11-2.49-10.639-4.15-16.447-4.925a.699.699 0 11.191-1.383c5.955.797 11.632 2.5 16.878 5.055a51.598 51.598 0 014.335 2.37c.333.201.437.63.235.961a.705.705 0 01-.6.336l-.006-.006zm-30.037-6.888a.699.699 0 01-.152-1.378 27.516 27.516 0 013.457-.553c1.107-.103 2.231-.141 3.348-.103.262.005.48.016.639.027a.702.702 0 01.665.732.705.705 0 01-.736.662l-.606-.027c-1.058-.033-2.127 0-3.174.103a25.602 25.602 0 00-3.277.52.78.78 0 01-.158.017h-.006z"/><path d="M263.113 105.085a.383.383 0 01-.137-.743 7.608 7.608 0 012.416-.494 7.942 7.942 0 011.598.093.385.385 0 01.322.439.391.391 0 01-.442.32 7.046 7.046 0 00-3.239.239c-.153.049-.278.097-.366.13a.406.406 0 01-.136.027l-.016-.011zm3.468 1.161a.384.384 0 01-.082-.759c.093-.022.235-.049.404-.082a16.616 16.616 0 013.506-.271.388.388 0 01.377.396c-.006.211-.197.363-.399.374a16.874 16.874 0 00-1.472.022 14.824 14.824 0 00-2.247.309.376.376 0 01-.082.011h-.005zm4.324 1.606a.385.385 0 01-.109-.754c.098-.027.235-.065.409-.109a10.354 10.354 0 011.98-.287 10.737 10.737 0 011.565.027.38.38 0 01.349.418.39.39 0 01-.42.347 9.959 9.959 0 00-1.456-.022 9.827 9.827 0 00-1.838.271c-.158.038-.289.076-.376.098a.374.374 0 01-.109.016l.005-.005zm3.163 17.016a.388.388 0 01-.185-.049l-2.765-1.481a.39.39 0 01-.158-.521.395.395 0 01.523-.157l2.765 1.481a.39.39 0 01.159.521.382.382 0 01-.339.2v.006zm19.065 6.363a.575.575 0 01-.463-.228 10.41 10.41 0 01-1.56-2.881c-.485-1.372-.938-2.674-.343-3.932.61-1.286 1.941-1.758 3.354-2.251a11.008 11.008 0 013.61-.619c.321 0 .578.255.578.575 0 .32-.257.575-.578.581-1.107 0-2.193.19-3.223.553-1.282.45-2.291.803-2.694 1.654-.393.836-.049 1.818.387 3.065a9.327 9.327 0 001.391 2.566.577.577 0 01-.459.927v-.01zM163.365 61.517a.776.776 0 01-.639-.336c-.425-.613-.654-1.259-.687-1.92-.169-3.298 4.527-5.63 7.951-7.334 3.583-1.78 7.466-3.081 11.534-3.868a.767.767 0 11.295 1.508c-3.932.76-7.684 2.018-11.136 3.732-2.699 1.346-7.215 3.591-7.1 5.886.016.368.158.748.42 1.128.24.352.152.83-.202 1.069a.755.755 0 01-.436.135z"/><path d="M176.627 70.332a.767.767 0 01-.223-.033 59.685 59.685 0 01-5.334-1.893c-.752-.309-1.783-.732-3.108-1.4a38.94 38.94 0 01-3.529-2.012c-.043-.027-.081-.06-.12-.092-.054-.054-.147-.135-.256-.233-1.238-1.096-2.421-2.257-2.138-3.325.077-.293.339-.814 1.211-.998a.771.771 0 01.916.591.766.766 0 01-.556.9c.147.272.567.765 1.592 1.682.099.087.18.163.246.217a37.891 37.891 0 003.326 1.893 39.285 39.285 0 003 1.35 58.08 58.08 0 005.191 1.845.767.767 0 01.513.96.78.78 0 01-.742.548h.011z"/><path d="M185.151 70.885c-2.596 0-5.208-.109-7.798-.326a.768.768 0 11.13-1.53c3.409.288 6.85.38 10.237.283.07 0 7.749-.277 14.129-1.606a46.632 46.632 0 005.89-1.643c.862-.304 1.325-.494 3.277-1.297l2.367-.97c.66-.272 1.249-.521 1.794-.75 1.707-.72 2.94-1.236 4.407-1.621 1.996-.52 4.106-.754 6.287-.705a.77.77 0 01.753.786c-.011.423-.382.749-.791.749a21.217 21.217 0 00-5.857.656c-1.358.353-2.546.857-4.193 1.546-.546.233-1.14.483-1.805.754l-2.367.971c-1.931.797-2.449 1.009-3.354 1.323a47.702 47.702 0 01-6.091 1.698c-6.517 1.356-14.321 1.633-14.403 1.638a81.1 81.1 0 01-2.617.038l.005.006zm41.669-15.698h-.033c-.545-.022-1.09-.07-1.625-.152a15.224 15.224 0 01-2.645-.63l-.12-.037a160.24 160.24 0 00-13.219-3.445c-4.073-.878-7.296-1.567-11.539-1.958a70.51 70.51 0 00-13.573.087.77.77 0 11-.164-1.53 72.301 72.301 0 0113.873-.092c4.336.396 7.597 1.096 11.725 1.985 4.472.96 8.966 2.132 13.35 3.477l.142.044c.371.12 1.243.401 2.388.57.459.065.922.113 1.386.13.747-.13 1.488-.315 2.208-.554.862-.287 1.478-.575 1.713-.683 2.317-1.08 7.667-3.065 12.302-4.4 2.613-.753 4.609-1.193 7.095-1.225.753-.011 1.511.016 2.253.081a.771.771 0 11-.137 1.535 22.478 22.478 0 00-2.099-.076c-2.307.033-4.199.45-6.686 1.166-5.045 1.454-10.176 3.429-12.058 4.302-.278.13-.954.445-1.903.76-.823.27-1.669.482-2.519.629-.044.005-.088.01-.131.01l.016.006zm22.632 17.928a.778.778 0 01-.311-.066L238.3 68.276a89.253 89.253 0 01-5.77-3.162 91.124 91.124 0 01-4.145-2.642.765.765 0 01-.201-1.069.769.769 0 011.074-.2 87.351 87.351 0 009.707 5.684l10.803 4.757a.768.768 0 01-.316 1.47z"/><path d="M249.452 73.115a.772.772 0 01-.589-.272c-1.969-2.321-3.501-4.882-4.554-7.61-.883-2.284-1.576-4.085-1.287-6.422.333-2.648 1.734-4.421 3.507-6.667l.152-.195a26.366 26.366 0 015.137-4.936.777.777 0 011.08.162.767.767 0 01-.163 1.074 24.83 24.83 0 00-4.837 4.65l-.153.194c-1.691 2.137-2.912 3.683-3.19 5.907-.246 1.953.327 3.434 1.194 5.68.992 2.57 2.438 4.985 4.297 7.17a.768.768 0 01-.589 1.265h-.005zm-65.975-8.051c-2.204 0-3.905-.824-4.783-1.361a.765.765 0 01-.251-1.058.769.769 0 011.064-.25c.834.51 2.563 1.33 4.771 1.086 2.214-.244 3.578-1.405 4.483-2.17.289-.244.464-.423.567-.542-.365-.142-1.216-.283-3.108-.331a25.743 25.743 0 00-6.637.737.769.769 0 11-.365-1.491 27.163 27.163 0 017.04-.781c2.312.054 4.412.211 4.723 1.508.147.618-.202 1.22-1.211 2.077-.982.835-2.629 2.23-5.317 2.528a8.59 8.59 0 01-.971.054l-.005-.005z"/><path d="M174.778 67.338a.774.774 0 01-.61-.299.766.766 0 01.136-1.08 13.063 13.063 0 003.703-4.436c.463-.912.818-1.888 1.052-2.891a.774.774 0 01.927-.575c.415.097.677.51.578.922a14.256 14.256 0 01-1.177 3.238c-.977 1.931-2.367 3.596-4.134 4.958a.773.773 0 01-.475.163zm-5.987-8.988h-.028a1.688 1.688 0 01-1.668-1.71 1.688 1.688 0 011.696-1.659h.022c.932.01 1.685.781 1.668 1.709a1.688 1.688 0 01-1.696 1.66h.006zm0-1.834a.146.146 0 00-.147.147c0 .048.021.086.043.103a.143.143 0 00.104.043.158.158 0 00.152-.146.154.154 0 00-.147-.152l-.005.005zm25.042 18.064c-1.353 0-2.711-.131-4.041-.38-4.892-.934-7.64-1.953-12.199-3.651a.768.768 0 01-.453-.987.776.776 0 01.992-.45c4.636 1.724 7.188 2.674 11.949 3.58 1.232.233 2.497.352 3.746.352h.022c.916 0 1.843-.065 2.754-.195.769-.109 1.429-.374 1.663-.553-.223-.293-1.112-1.026-3.533-2.062a.765.765 0 01-.404-1.009.772.772 0 011.014-.401c4.281 1.828 4.652 2.972 4.494 3.764-.267 1.335-2.563 1.725-3.016 1.79-.981.136-1.979.207-2.966.212h-.028l.006-.01zm20.139-3.11c-.349 0-.698-.004-1.047-.02a23.497 23.497 0 01-9.772-2.648.761.761 0 01-.322-1.036.77.77 0 011.041-.32 22.027 22.027 0 009.124 2.474 21.711 21.711 0 006.833-.787c-.224-.743-.665-1.882-1.434-2.652-.24-.24-.633-.635-1.254-.906a5.371 5.371 0 00-.628-.217l-.24-.076a72.044 72.044 0 01-1.641-.543.768.768 0 01-.48-.976.777.777 0 01.982-.477c.371.124.921.314 1.608.531l.24.076c.366.114.546.174.791.277.884.39 1.429.933 1.718 1.22 1.38 1.378 1.903 3.493 2.029 4.106a.771.771 0 01-.524.89 23.286 23.286 0 01-7.018 1.09l-.006-.005zm2.901-18.718a.775.775 0 01-.774-.733.77.77 0 01.736-.802 26.885 26.885 0 002.618-.24.768.768 0 11.229 1.519c-.845.125-1.756.212-2.776.256h-.038.005z"/><path d="M219.567 52.502a.774.774 0 01-.769-.721.772.772 0 01.72-.82c2.656-.167 3.97-1.046 4.096-1.844.109-.688-.628-1.828-3.071-2.788a.771.771 0 11.567-1.432c2.787 1.096 4.292 2.767 4.025 4.459-.278 1.763-2.345 2.935-5.524 3.14h-.049l.005.006zm-32.622-6.167a.774.774 0 01-.753-.597.77.77 0 01.584-.917c8.186-1.839 16.447-2.36 24.562-1.551 2.28.228 4.575.564 6.833.998.42.081.693.483.611.9a.77.77 0 01-.905.608 73.374 73.374 0 00-6.692-.982c-7.945-.792-16.043-.282-24.065 1.524-.06.011-.115.022-.169.022l-.006-.005zm-11.719 4.99a.782.782 0 01-.649-.347.762.762 0 01.223-1.064 37.864 37.864 0 014.243-2.386 37.277 37.277 0 014.319-1.752c.344-.114.638-.207.845-.272a.768.768 0 11.459 1.465c-.197.06-.475.152-.808.26a36.106 36.106 0 00-8.207 3.971.757.757 0 01-.42.125h-.005z"/><path d="M190.042 47.376a.583.583 0 01-.436-.195.574.574 0 01.049-.814 10.74 10.74 0 012.934-1.833 11.18 11.18 0 012.149-.657.581.581 0 01.682.456.58.58 0 01-.459.678 9.815 9.815 0 00-4.122 1.877c-.18.14-.322.26-.42.347a.572.572 0 01-.382.146l.005-.005zm5.312-.732a.577.577 0 01-.316-1.063 21.857 21.857 0 012.95-1.578c.66-.294 1.342-.56 2.018-.782a.58.58 0 11.371 1.096c-.644.211-1.287.466-1.914.743a20.9 20.9 0 00-2.793 1.497.605.605 0 01-.31.092l-.006-.005zm6.462.011a.578.578 0 01-.349-1.041c.115-.082.279-.202.48-.343a15.424 15.424 0 014.538-2.072.586.586 0 01.714.402.578.578 0 01-.404.71 15.12 15.12 0 00-1.914.673c-.807.347-1.57.77-2.274 1.242-.191.125-.338.239-.442.315a.577.577 0 01-.343.114h-.006zm12.494 20.791s-.054 0-.082-.005l-4.357-.603a.58.58 0 01-.496-.65.581.581 0 01.654-.494l4.357.602a.58.58 0 01.497.65.58.58 0 01-.573.5zm28.041-1.161a.558.558 0 01-.31-.092 14.522 14.522 0 01-3.409-2.978c-1.276-1.535-2.481-2.983-2.328-4.828.158-1.887 1.647-3.119 3.217-4.426a15.006 15.006 0 014.363-2.522.58.58 0 01.747.336.575.575 0 01-.338.743 13.994 13.994 0 00-4.03 2.327c-1.5 1.248-2.683 2.23-2.803 3.635-.115 1.377.845 2.533 2.061 3.997a13.29 13.29 0 003.136 2.74.576.576 0 01-.311 1.063l.005.005zM70.406 78.153a.7.7 0 01-.654-.45 2.769 2.769 0 01-.159-1.53c.464-2.413 4.172-3.254 6.877-3.873 2.803-.64 5.732-.89 8.704-.754a.704.704 0 01.67.733c-.016.385-.343.672-.736.667a30.946 30.946 0 00-8.322.716c-2.066.472-5.524 1.258-5.813 2.772-.043.233-.01.493.093.77a.697.697 0 01-.66.944v.005z"/><path d="M78.117 86.496a.698.698 0 01-.354-.098 42.818 42.818 0 01-3.392-2.218c-.47-.342-1.118-.808-1.93-1.503a28.306 28.306 0 01-2.117-1.996.839.839 0 01-.087-.108 3.654 3.654 0 00-.136-.196c-.698-1.008-1.347-2.055-.927-2.82.12-.223.425-.591 1.145-.564.387.01.692.33.681.716a.702.702 0 01-.49.645c.092.228.305.602.741 1.231.05.071.093.136.126.185.616.645 1.281 1.27 1.968 1.85a28.17 28.17 0 001.844 1.432 41.447 41.447 0 003.277 2.142.696.696 0 01-.36 1.297l.011.005z"/><path d="M96.97 90.011a35 35 0 01-1.07-.016c-4.766-.152-10.072-1.237-10.295-1.286a66.297 66.297 0 01-7.199-1.952.697.697 0 01-.441-.885.702.702 0 01.888-.439 65.36 65.36 0 007.04 1.91c.05.01 5.416 1.106 10.057 1.258 1.434.049 2.901 0 4.346-.152.649-.065 1.004-.12 2.498-.353l1.799-.276c.502-.076.955-.152 1.369-.217 1.309-.212 2.258-.369 3.349-.385a16.55 16.55 0 014.526.57.698.698 0 11-.365 1.35 15.218 15.218 0 00-4.14-.526c-.992.016-1.897.163-3.146.369-.42.07-.878.14-1.385.222l-1.794.277c-1.484.227-1.887.293-2.569.358-1.15.114-2.312.173-3.463.173h-.005zm19.359-5.571c-.283 0-.572-.01-.856-.027a.414.414 0 01-.142-.027 11.93 11.93 0 01-1.118-.385c-.867-.347-1.483-.727-1.75-.89l-.071-.043a114.487 114.487 0 00-8.578-4.605c-2.678-1.291-4.788-2.31-7.662-3.287a50.593 50.593 0 00-9.407-2.213.698.698 0 11.19-1.384 51.205 51.205 0 019.675 2.273c2.95 1.004 5.099 2.04 7.814 3.352a116.192 116.192 0 018.688 4.66l.092.054c.235.147.786.483 1.538.787.295.119.6.222.905.314a11.068 11.068 0 002.874-.2c1.8-.364 5.857-.841 9.309-.993 1.953-.081 3.425-.054 5.17.342.529.119 1.053.27 1.565.439.366.125.562.52.442.884a.709.709 0 01-.889.44 13.814 13.814 0 00-1.429-.402c-1.592-.363-2.961-.39-4.799-.309-3.735.163-7.623.667-9.074.96-.213.043-.742.152-1.467.212-.338.027-.682.043-1.02.043v.005zm11.856 16.213a.698.698 0 01-.426-.146l-6.713-5.137a63.001 63.001 0 01-3.479-3.178 67.47 67.47 0 01-2.438-2.534.695.695 0 01.049-.987.704.704 0 01.993.049 62.693 62.693 0 005.759 5.565l6.686 5.115a.703.703 0 01.131.982.703.703 0 01-.557.271h-.005z"/><path d="M128.19 100.654a.699.699 0 01-.627-.385 19.107 19.107 0 01-1.887-6.097c-.229-1.752-.409-3.136.207-4.747.693-1.817 1.98-2.826 3.61-4.1l.142-.109a19.2 19.2 0 014.439-2.587.694.694 0 01.916.374.692.692 0 01-.376.911 17.77 17.77 0 00-4.112 2.392l-.141.109c-1.516 1.188-2.613 2.045-3.169 3.498-.491 1.28-.343 2.393-.125 4.069.251 1.93.84 3.835 1.75 5.652a.695.695 0 01-.316.938.706.706 0 01-.311.076v.006zM85.097 84.153c-.256 0-.523-.017-.796-.05-1.952-.249-3.255-1.306-3.86-1.914a.693.693 0 01.005-.987.702.702 0 01.992.005c.48.483 1.505 1.319 3.043 1.514 1.532.2 2.65-.364 3.392-.738.11-.054.196-.103.267-.141-.343-.174-.965-.374-1.854-.613a18.182 18.182 0 00-4.69-.597.703.703 0 01-.703-.7c0-.385.316-.7.703-.7 1.756 0 3.452.218 5.056.646 1.717.462 3.135.922 3.13 1.986 0 .64-.616 1.036-1.276 1.367-.677.336-1.849.927-3.409.927v-.005z"/><path d="M77.343 84.11a.696.696 0 01-.29-1.334 9.245 9.245 0 003.267-2.42 9.1 9.1 0 001.2-1.801.701.701 0 01.944-.31.694.694 0 01.31.94 10.499 10.499 0 01-1.385 2.082 10.515 10.515 0 01-3.763 2.788.674.674 0 01-.289.06l.006-.005zm-2.476-7.226a1.352 1.352 0 01-1.32-1.692c.093-.353.311-.646.627-.825a1.374 1.374 0 011.031-.146c.355.092.649.309.834.624.186.309.235.678.148 1.025a1.33 1.33 0 01-.627.824c-.213.125-.448.19-.688.19h-.005zm0-1.394s-.038.016-.044.033c0 .021.011.049.033.054.027.005.05-.01.055-.033.005-.021-.006-.048-.033-.054h-.011zm16.965 17.212c-.223 0-.409-.017-.529-.027a15.48 15.48 0 01-2.116-.358 15.885 15.885 0 01-2.78-.955c-3.246-1.47-4.985-2.647-7.87-4.594a.696.696 0 01-.186-.972.704.704 0 01.977-.184c2.917 1.97 4.526 3.054 7.662 4.48.812.37 1.668.662 2.53.868.627.152 1.276.26 1.92.326.398.038.785.005 1.014-.043-.202-.31-.763-.912-1.974-1.818a.697.697 0 01-.142-.976.706.706 0 01.982-.141c2.732 2.04 2.808 2.94 2.525 3.547-.333.716-1.337.847-2.018.847h.005zm15.777 1.307c-1.581 0-3.141-.223-4.662-.662a16.895 16.895 0 01-6.392-3.51.699.699 0 01-.06-.987.708.708 0 01.993-.06 15.535 15.535 0 005.857 3.217c1.521.44 3.092.64 4.673.602-.038-.531-.163-1.285-.512-1.86-.126-.206-.317-.521-.682-.798a4.11 4.11 0 00-.382-.244l-.158-.092a67.938 67.938 0 01-1.053-.651.698.698 0 01-.212-.965.706.706 0 01.971-.212c.234.152.583.369 1.025.634l.152.093c.257.157.366.222.513.33.573.435.878.94 1.025 1.183.747 1.226.747 2.815.731 3.271a.7.7 0 01-.654.673c-.393.027-.78.038-1.173.038zm3.338-12.677h-.066a20.4 20.4 0 01-1.985-.287.701.701 0 01-.556-.82.707.707 0 01.823-.553c.677.13 1.276.217 1.844.272a.7.7 0 01-.06 1.394v-.006z"/><path d="M112.304 81.463c-.458 0-.954-.044-1.483-.136a.692.692 0 01-.567-.808.696.696 0 01.813-.564c1.783.314 2.797-.044 2.993-.5.18-.423-.245-1.318-1.603-2.272a.695.695 0 01-.169-.971.702.702 0 01.976-.168c1.811 1.274 2.591 2.75 2.089 3.949-.404.96-1.505 1.475-3.049 1.475v-.005zm-1.297-5.051a.722.722 0 01-.295-.065 51.185 51.185 0 00-4.466-1.795c-5.366-1.877-11.06-2.88-16.917-2.978a.703.703 0 01-.692-.71.71.71 0 01.714-.69c6.01.098 11.85 1.129 17.358 3.054a53.995 53.995 0 014.587 1.845.694.694 0 01.343.927.704.704 0 01-.638.407l.006.005zM80.37 73.071a.696.696 0 01-.66-.466.692.692 0 01.425-.89 27.145 27.145 0 017.319-1.492.697.697 0 11.092 1.395c-.147.01-.355.021-.6.043-1.052.092-2.11.25-3.141.472-1.08.228-2.154.531-3.196.9a.709.709 0 01-.234.038h-.006z"/><path d="M91.516 72.274a.395.395 0 01-.344-.206.386.386 0 01.164-.521 7.734 7.734 0 012.345-.776 7.836 7.836 0 011.598-.092.39.39 0 01.37.401.388.388 0 01-.403.37 6.978 6.978 0 00-3.545.776.366.366 0 01-.18.042l-.005.006zm3.583.743a.384.384 0 01-.126-.749c.093-.032.23-.076.393-.13a16.503 16.503 0 013.452-.678.392.392 0 01.42.353.392.392 0 01-.354.417 16.026 16.026 0 00-3.283.64c-.159.05-.284.093-.371.12a.34.34 0 01-.126.021l-.005.006zm4.483 1.095a.379.379 0 01-.355-.233.386.386 0 01.207-.504 11.339 11.339 0 012.323-.673 11.68 11.68 0 011.56-.157c.213 0 .393.163.398.374a.387.387 0 01-.376.396 10.277 10.277 0 00-3.245.63c-.152.054-.278.108-.36.14a.361.361 0 01-.147.033l-.005-.005zm5.148 16.528a.414.414 0 01-.142-.027l-2.923-1.15a.388.388 0 01-.218-.499.391.391 0 01.502-.216l2.923 1.15a.388.388 0 01.218.498.389.389 0 01-.36.245zm19.654 4.096a.579.579 0 01-.42-.18 10.37 10.37 0 01-1.887-2.68c-.644-1.306-1.249-2.543-.802-3.867.453-1.35 1.723-1.969 3.07-2.625a11.077 11.077 0 013.512-1.036.574.574 0 01.644.504.575.575 0 01-.507.64 9.822 9.822 0 00-3.136.923c-1.216.596-2.181 1.063-2.481 1.958-.295.873.163 1.811.747 2.994a9.256 9.256 0 001.68 2.387.578.578 0 01-.42.976v.006zM21.25 12.774a.756.756 0 01-.323-.076 30.788 30.788 0 00-7.869-2.793c-2.078-.429-5.546-1.145-6.446.114a1.463 1.463 0 00-.24.737.708.708 0 01-.747.651.7.7 0 01-.654-.743 2.797 2.797 0 01.496-1.454c1.429-2.001 5.154-1.231 7.875-.672a32.294 32.294 0 018.229 2.923c.343.18.48.597.3.939a.708.708 0 01-.622.38v-.006z"/><path d="M9.192 22.185a.7.7 0 01-.578-.298 41.277 41.277 0 01-2.155-3.423c-.283-.504-.676-1.198-1.123-2.164a28.736 28.736 0 01-1.09-2.696.548.548 0 01-.033-.135c-.006-.055-.022-.136-.039-.24-.212-1.203-.365-2.424.339-2.95.201-.152.638-.358 1.281-.038a.697.697 0 01-.393 1.318c-.005.244.028.678.159 1.427.016.087.027.162.038.222a25.84 25.84 0 001.014 2.5c.426.917.802 1.58 1.074 2.067a41.887 41.887 0 002.084 3.31.694.694 0 01-.175.97.678.678 0 01-.398.125l-.005.005z"/><path d="M40.38 39.326a.699.699 0 01-.448-.162 15.172 15.172 0 00-3.539-2.192c-.905-.396-1.789-.634-3.016-.965-.409-.114-.856-.234-1.352-.375l-1.756-.493c-1.44-.407-1.827-.516-2.481-.738a34.645 34.645 0 01-4.189-1.736c-4.27-2.11-8.638-5.3-8.823-5.435a66.897 66.897 0 01-5.726-4.757.694.694 0 01-.033-.987.702.702 0 01.992-.033 65.847 65.847 0 005.601 4.654c.044.033 4.461 3.25 8.617 5.305a33.927 33.927 0 004.013 1.666c.617.206.96.303 2.405.71l1.756.494c.491.14.933.26 1.342.369 1.281.347 2.203.602 3.206 1.036 1.364.59 2.667 1.4 3.872 2.392.3.244.338.683.093.982a.694.694 0 01-.54.255l.005.01zm20.984 3.857a.707.707 0 01-.48-.19c-.36-.336-.736-.656-1.129-.955-1.292-.987-2.53-1.578-4.231-2.267-3.469-1.4-7.21-2.55-8.65-2.886a12.396 12.396 0 01-3.135-1.182.587.587 0 01-.12-.082 12.061 12.061 0 01-.856-.813 10.842 10.842 0 01-1.216-1.535l-.05-.07a112.978 112.978 0 00-5.873-7.741c-1.898-2.284-3.386-4.085-5.584-6.162a49.925 49.925 0 00-7.624-5.907.7.7 0 01-.218-.966.707.707 0 01.97-.217 51.198 51.198 0 017.843 6.075c2.257 2.137 3.779 3.965 5.698 6.282a112.478 112.478 0 015.95 7.843l.06.087c.153.228.513.76 1.069 1.35.218.234.453.456.693.663.463.249.954.466 1.45.645.605.217 1.069.325 1.249.369 1.789.417 5.677 1.66 8.878 2.956 1.81.732 3.136 1.367 4.56 2.452.43.33.844.683 1.237 1.047a.693.693 0 01.027.987.69.69 0 01-.512.217h-.006zM48.789 55.8a.702.702 0 01-.622-.375l-3.954-7.447a64.198 64.198 0 01-1.832-4.329 56.62 56.62 0 01-1.15-3.314.694.694 0 01.457-.873.7.7 0 01.878.455 61.847 61.847 0 002.907 7.442l3.937 7.415a.697.697 0 01-.294.944.712.712 0 01-.327.082z"/><path d="M48.783 55.8a.706.706 0 01-.703-.678 19.09 19.09 0 01.84-6.325c.529-1.687.943-3.021 2.175-4.225 1.391-1.367 2.983-1.747 5.001-2.23l.175-.043a19.148 19.148 0 015.115-.51c.387.01.693.336.676.721a.686.686 0 01-.725.673 17.694 17.694 0 00-4.74.472l-.174.043c-1.876.45-3.228.776-4.346 1.872-.981.96-1.314 2.028-1.816 3.645a17.508 17.508 0 00-.774 5.863.7.7 0 01-.682.722h-.022zM19.1 23.46c-.921 0-2.236-.125-3.577-.96-1.669-1.036-2.41-2.538-2.705-3.341a.703.703 0 011.32-.477c.234.634.818 1.822 2.132 2.636 1.309.813 2.563.764 3.392.732.12 0 .218-.01.3-.022-.245-.298-.72-.743-1.429-1.329a17.925 17.925 0 00-4.014-2.484.7.7 0 11.589-1.27 19.545 19.545 0 014.325 2.68c1.369 1.128 2.465 2.143 2.018 3.103-.273.586-1.026.689-1.734.716-.175.005-.382.016-.611.016H19.1z"/><path d="M9.579 19.69h-.093a.699.699 0 11.005-1.4h.088a9.207 9.207 0 003.904-.846 9.407 9.407 0 001.85-1.139.7.7 0 01.986.109.695.695 0 01-.109.982 10.55 10.55 0 01-2.132 1.318 10.661 10.661 0 01-4.494.976H9.58zm.954-7.534c-.3 0-.605-.098-.856-.304a1.344 1.344 0 01-.196-1.904c.229-.282.556-.456.916-.494.36-.038.714.066.998.299a1.344 1.344 0 01.196 1.904c-.267.33-.66.499-1.058.499zm0-1.394s-.027 0-.032.016c-.011.016-.011.049.005.06.016.016.05.01.06-.006.01-.016.01-.049-.006-.06a.042.042 0 00-.027-.01zm9.582 23.031c-.725 0-1.522-.417-1.816-.591a15.61 15.61 0 01-1.773-1.199 15.63 15.63 0 01-2.132-2.023c-2.334-2.685-3.425-4.47-5.23-7.437a.7.7 0 01.235-.96.708.708 0 01.965.233c1.827 3 2.836 4.654 5.094 7.247a14.06 14.06 0 003.55 2.93c.349.2.709.33.943.379-.054-.363-.31-1.145-1.036-2.468a.698.698 0 01.284-.95.705.705 0 01.954.283c1.63 2.989 1.325 3.835.813 4.274-.24.2-.535.277-.846.277l-.005.005zm13.78 7.865a.78.78 0 01-.245-.043 16.579 16.579 0 01-5.039-2.983 16.784 16.784 0 01-4.34-5.837.696.696 0 01.354-.922.703.703 0 01.927.353c.916 2.05 2.29 3.9 3.975 5.348a15.266 15.266 0 003.998 2.484c.185-.504.387-1.231.31-1.904a2.716 2.716 0 00-.283-1.009c-.066-.119-.12-.195-.245-.38l-.104-.151a47.289 47.289 0 01-.682-1.03.698.698 0 01.213-.966.707.707 0 01.97.211c.148.233.377.58.666 1.004l.104.152c.169.25.24.352.321.515.338.635.404 1.215.437 1.497.163 1.416-.497 2.864-.704 3.276a.699.699 0 01-.627.385h-.006zm7.302-10.566a.673.673 0 01-.349-.092 20.582 20.582 0 01-1.685-1.085.7.7 0 01-.163-.976.708.708 0 01.981-.163c.557.396 1.07.727 1.566 1.009a.698.698 0 01-.35 1.307z"/><path d="M43.962 32.171c-.905 0-2.001-.406-3.163-1.204a.695.695 0 01-.18-.97.704.704 0 01.977-.18c1.488 1.02 2.563 1.123 2.928.781.338-.314.327-1.301-.507-2.728a.694.694 0 01.256-.955.702.702 0 01.96.255c1.113 1.91 1.205 3.575.245 4.454-.398.363-.916.547-1.516.547zm-.643-5.527a.705.705 0 01-.534-.244 51.327 51.327 0 00-3.305-3.482c-4.09-3.933-8.846-7.198-14.13-9.715a.704.704 0 01-.333-.933.71.71 0 01.938-.331c5.421 2.576 10.302 5.934 14.501 9.97a52.761 52.761 0 013.392 3.58.7.7 0 01-.535 1.155h.006zM23.954 12.541a.686.686 0 01-.25-.049 26.098 26.098 0 00-3.621-1.08 25.804 25.804 0 00-3.284-.504.7.7 0 11.125-1.394c1.162.103 2.324.282 3.463.532a26.803 26.803 0 013.818 1.144c.36.136.545.543.403.9a.705.705 0 01-.654.451z"/><path d="M30.945 15.573a.396.396 0 01-.174-.043 7.46 7.46 0 00-1.342-.521 7.149 7.149 0 00-1.816-.25c-.163 0-.3 0-.387.011a.382.382 0 01-.41-.363.388.388 0 01.366-.407c.104-.005.257-.01.437-.01.676 0 1.358.091 2.017.276a8.113 8.113 0 011.49.575.384.384 0 01-.174.727l-.007.005zm2.935 2.207a.37.37 0 01-.132-.021 16.856 16.856 0 00-1.407-.428 16.024 16.024 0 00-1.848-.353c-.164-.022-.295-.033-.388-.044a.384.384 0 01-.349-.417.392.392 0 01.42-.347c.099.01.24.021.41.043a16.573 16.573 0 013.419.819.386.386 0 01-.131.749h.005zm3.625 2.832a.408.408 0 01-.152-.032 10.293 10.293 0 00-3.212-.77c-.164-.011-.295-.017-.387-.022a.388.388 0 01-.377-.396.388.388 0 01.398-.374c.099 0 .246.01.42.021a11.016 11.016 0 013.458.836.386.386 0 01.207.504.384.384 0 01-.355.233zm-5.987 16.333a.373.373 0 01-.278-.12l-2.176-2.256a.383.383 0 01.01-.543.388.388 0 01.546.011l2.176 2.257a.383.383 0 01-.278.65zm16.24 11.89a.573.573 0 01-.545-.385 10.383 10.383 0 01-.595-3.217c-.032-1.459-.07-2.831.89-3.851.975-1.036 2.388-1.074 3.887-1.117a11.014 11.014 0 013.627.515.578.578 0 11-.355 1.101 9.841 9.841 0 00-3.239-.461c-1.358.038-2.426.065-3.075.754-.633.673-.606 1.714-.579 3.032.022.971.202 1.937.53 2.864a.576.576 0 01-.546.765z"/></g><defs><clipPath id="clip0_2248_12858"><path fill="#fff" transform="translate(4)" d="M0 0h301v138H0z"/></clipPath><filter id="filter0_d_2248_12858" x="0" y="0" width="309" height="146" filterUnits="userSpaceOnUse" color-interpolation-filters="sRGB"><feFlood flood-opacity="0" result="BackgroundImageFix"/><feColorMatrix in="SourceAlpha" values="0 0 0 0 0 0 0 0 0 0 0 0 0 0 0 0 0 0 127 0" result="hardAlpha"/><feOffset dy="4"/><feGaussianBlur stdDeviation="2"/><feComposite in2="hardAlpha" operator="out"/><feColorMatrix values="0 0 0 0 0 0 0 0 0 0 0 0 0 0 0 0 0 0 0.25 0"/><feBlend in2="BackgroundImageFix" result="effect1_dropShadow_2248_12858"/><feBlend in="SourceGraphic" in2="effect1_dropShadow_2248_12858" result="shape"/></filter></defs></svg>