<svg width="251" height="38" fill="none" xmlns="http://www.w3.org/2000/svg"><g filter="url(#filter0_d_419_16819)"><mask id="a" maskUnits="userSpaceOnUse" x="3" y="-1" width="245" height="32" fill="#000"><path fill="#fff" d="M3-1h245v32H3z"/><path d="M29.5 14.68c0 2.147-.34 4.1-1.02 5.86-.68 1.76-1.64 3.267-2.88 4.52-1.24 1.253-2.733 2.227-4.48 2.92-1.733.68-3.653 1.02-5.76 1.02H4.66V.34h10.7c2.107 0 4.027.347 5.76 1.04 1.747.68 3.24 1.653 4.48 2.92 1.24 1.253 2.2 2.76 2.88 4.52.68 1.76 1.02 3.713 1.02 5.86zm-3.98 0c0-1.76-.24-3.333-.72-4.72-.48-1.387-1.16-2.56-2.04-3.52a8.7 8.7 0 00-3.2-2.2c-1.253-.507-2.653-.76-4.2-.76H8.54v22.38h6.82c1.547 0 2.947-.253 4.2-.76a8.816 8.816 0 003.2-2.18c.88-.96 1.56-2.133 2.04-3.52s.72-2.96.72-4.72zM60.57 29h-3.88V.34h3.88V29zM112.8.34L101.121 29h-3.48L85.96.34h3.1c.346 0 .626.087.84.26a1.6 1.6 0 01.48.66l8.08 20.22c.173.453.34.947.5 1.48.173.533.326 1.093.46 1.68.133-.587.273-1.147.42-1.68.146-.533.306-1.027.48-1.48l8.06-20.22c.08-.227.233-.433.46-.62.24-.2.526-.3.86-.3h3.1zM142.051 29h-3.88V.34h3.88V29zM194.202.34V29h-1.94c-.307 0-.567-.053-.78-.16-.2-.107-.4-.287-.6-.54l-16.58-21.6a24.418 24.418 0 01.08 1.88V29h-3.4V.34h2c.173 0 .32.013.44.04.12.013.227.047.32.1a.92.92 0 01.28.2c.093.08.193.187.3.32l16.58 21.58c-.027-.347-.053-.68-.08-1-.013-.333-.02-.647-.02-.94V.34h3.4zm52.207 14.88v11a16.232 16.232 0 01-4.62 2.34c-1.627.507-3.414.76-5.36.76-2.307 0-4.387-.353-6.24-1.06-1.854-.72-3.44-1.72-4.76-3-1.307-1.293-2.314-2.84-3.02-4.64-.707-1.8-1.06-3.78-1.06-5.94 0-2.187.34-4.18 1.02-5.98.693-1.8 1.673-3.34 2.94-4.62 1.266-1.293 2.806-2.293 4.62-3 1.813-.707 3.84-1.06 6.08-1.06 1.133 0 2.186.087 3.16.26.973.16 1.873.4 2.7.72.826.307 1.593.687 2.3 1.14.706.44 1.366.94 1.98 1.5l-1.1 1.76c-.174.267-.4.44-.68.52-.267.067-.567 0-.9-.2a28.99 28.99 0 01-1.1-.68 8.972 8.972 0 00-1.52-.76c-.587-.253-1.287-.467-2.1-.64-.8-.173-1.754-.26-2.86-.26-1.614 0-3.074.267-4.38.8a9.097 9.097 0 00-3.34 2.26c-.92.973-1.627 2.16-2.12 3.56-.494 1.387-.74 2.947-.74 4.68 0 1.8.253 3.413.76 4.84.52 1.413 1.253 2.62 2.2 3.62.96.987 2.12 1.74 3.48 2.26 1.36.52 2.886.78 4.58.78 1.333 0 2.513-.147 3.54-.44a15.762 15.762 0 003.04-1.26v-6.3h-4.46c-.254 0-.46-.073-.62-.22a.733.733 0 01-.22-.54v-2.2h8.8z"/></mask><path d="M29.5 14.68c0 2.147-.34 4.1-1.02 5.86-.68 1.76-1.64 3.267-2.88 4.52-1.24 1.253-2.733 2.227-4.48 2.92-1.733.68-3.653 1.02-5.76 1.02H4.66V.34h10.7c2.107 0 4.027.347 5.76 1.04 1.747.68 3.24 1.653 4.48 2.92 1.24 1.253 2.2 2.76 2.88 4.52.68 1.76 1.02 3.713 1.02 5.86zm-3.98 0c0-1.76-.24-3.333-.72-4.72-.48-1.387-1.16-2.56-2.04-3.52a8.7 8.7 0 00-3.2-2.2c-1.253-.507-2.653-.76-4.2-.76H8.54v22.38h6.82c1.547 0 2.947-.253 4.2-.76a8.816 8.816 0 003.2-2.18c.88-.96 1.56-2.133 2.04-3.52s.72-2.96.72-4.72zM60.57 29h-3.88V.34h3.88V29zM112.8.34L101.121 29h-3.48L85.96.34h3.1c.346 0 .626.087.84.26a1.6 1.6 0 01.48.66l8.08 20.22c.173.453.34.947.5 1.48.173.533.326 1.093.46 1.68.133-.587.273-1.147.42-1.68.146-.533.306-1.027.48-1.48l8.06-20.22c.08-.227.233-.433.46-.62.24-.2.526-.3.86-.3h3.1zM142.051 29h-3.88V.34h3.88V29zM194.202.34V29h-1.94c-.307 0-.567-.053-.78-.16-.2-.107-.4-.287-.6-.54l-16.58-21.6a24.418 24.418 0 01.08 1.88V29h-3.4V.34h2c.173 0 .32.013.44.04.12.013.227.047.32.1a.92.92 0 01.28.2c.093.08.193.187.3.32l16.58 21.58c-.027-.347-.053-.68-.08-1-.013-.333-.02-.647-.02-.94V.34h3.4zm52.207 14.88v11a16.232 16.232 0 01-4.62 2.34c-1.627.507-3.414.76-5.36.76-2.307 0-4.387-.353-6.24-1.06-1.854-.72-3.44-1.72-4.76-3-1.307-1.293-2.314-2.84-3.02-4.64-.707-1.8-1.06-3.78-1.06-5.94 0-2.187.34-4.18 1.02-5.98.693-1.8 1.673-3.34 2.94-4.62 1.266-1.293 2.806-2.293 4.62-3 1.813-.707 3.84-1.06 6.08-1.06 1.133 0 2.186.087 3.16.26.973.16 1.873.4 2.7.72.826.307 1.593.687 2.3 1.14.706.44 1.366.94 1.98 1.5l-1.1 1.76c-.174.267-.4.44-.68.52-.267.067-.567 0-.9-.2a28.99 28.99 0 01-1.1-.68 8.972 8.972 0 00-1.52-.76c-.587-.253-1.287-.467-2.1-.64-.8-.173-1.754-.26-2.86-.26-1.614 0-3.074.267-4.38.8a9.097 9.097 0 00-3.34 2.26c-.92.973-1.627 2.16-2.12 3.56-.494 1.387-.74 2.947-.74 4.68 0 1.8.253 3.413.76 4.84.52 1.413 1.253 2.62 2.2 3.62.96.987 2.12 1.74 3.48 2.26 1.36.52 2.886.78 4.58.78 1.333 0 2.513-.147 3.54-.44a15.762 15.762 0 003.04-1.26v-6.3h-4.46c-.254 0-.46-.073-.62-.22a.733.733 0 01-.22-.54v-2.2h8.8z" fill="#fff"/><path d="M25.6 25.06l-.71-.703.71.703zm-4.48 2.92l.365.93h.004l-.369-.93zM4.66 29h-1v1h1v-1zm0-28.66v-1h-1v1h1zm16.46 1.04l-.371.929.008.003.363-.932zM25.6 4.3l-.715.7.004.003.711-.703zm2.88 4.52l.933-.36-.933.36zm-8.92-4.58l-.375.927.375-.927zM8.54 3.48v-1h-1v1h1zm0 22.38h-1v1h1v-1zm11.02-.76l-.375-.927.375.927zm3.2-2.18l.732.68.005-.004-.737-.676zm2.04-3.52l.945.327-.945-.327zm3.7-4.72c0 2.04-.323 3.87-.953 5.5l1.866.72c.73-1.89 1.087-3.967 1.087-6.22h-2zm-.953 5.5c-.634 1.64-1.521 3.028-2.658 4.177l1.422 1.406c1.343-1.358 2.376-2.983 3.102-4.863l-1.866-.72zm-2.658 4.177c-1.136 1.149-2.511 2.048-4.138 2.694l.738 1.859c1.866-.741 3.478-1.789 4.822-3.147l-1.422-1.406zm-4.134 2.692c-1.603.629-3.397.951-5.395.951v2c2.215 0 4.261-.358 6.125-1.09l-.73-1.86zM15.36 28H4.66v2h10.7v-2zm-9.7 1V.34h-2V29h2zm-1-27.66h10.7v-2H4.66v2zm10.7 0c1.996 0 3.788.328 5.389.968L21.49.452C19.626-.295 17.578-.66 15.36-.66v2zm5.397.972C22.38 2.943 23.75 3.84 24.885 5l1.43-1.4c-1.346-1.374-2.96-2.423-4.832-3.152l-.726 1.864zm4.132 2.691c1.137 1.15 2.024 2.537 2.658 4.177l1.866-.72c-.726-1.88-1.759-3.505-3.102-4.863l-1.422 1.406zm2.658 4.177c.63 1.63.953 3.46.953 5.5h2c0-2.253-.357-4.33-1.087-6.22l-1.866.72zm-1.027 5.5c0-1.85-.252-3.537-.775-5.047l-1.89.654c.437 1.263.665 2.723.665 4.393h2zm-.775-5.047c-.52-1.5-1.264-2.796-2.248-3.869l-1.474 1.352c.776.847 1.391 1.897 1.832 3.171l1.89-.654zm-2.248-3.869a9.7 9.7 0 00-3.562-2.451l-.75 1.854a7.7 7.7 0 012.838 1.949l1.474-1.352zm-3.562-2.451c-1.388-.561-2.918-.833-4.575-.833v2c1.437 0 2.707.235 3.825.687l.75-1.854zM15.36 2.48H8.54v2h6.82v-2zm-7.82 1v22.38h2V3.48h-2zm1 23.38h6.82v-2H8.54v2zm6.82 0c1.657 0 3.187-.272 4.575-.833l-.75-1.854c-1.118.452-2.388.687-3.825.687v2zm4.575-.833a9.815 9.815 0 003.557-2.426l-1.464-1.362a7.817 7.817 0 01-2.843 1.934l.75 1.854zm3.562-2.431c.984-1.073 1.729-2.37 2.248-3.869l-1.89-.654c-.44 1.274-1.056 2.324-1.832 3.171l1.474 1.352zm2.248-3.869c.523-1.51.775-3.197.775-5.047h-2c0 1.67-.228 3.13-.665 4.393l1.89.654zM60.57 29v1h1v-1h-1zm-3.88 0h-1v1h1v-1zm0-28.66v-1h-1v1h1zm3.88 0h1v-1h-1v1zm0 27.66h-3.88v2h3.88v-2zm-2.88 1V.34h-2V29h2zm-1-27.66h3.88v-2h-3.88v2zm2.88-1V29h2V.34h-2zm53.231 0l.926.377.561-1.377h-1.487v1zM101.121 29v1h.672l.254-.623-.926-.377zm-3.48 0l-.926.377.253.623h.673v-1zM85.96.34v-1h-1.488l.562 1.377.926-.377zm4.42.92l.928-.371-.928.371zm8.08 20.22l.934-.357-.003-.007-.003-.007-.928.371zm.5 1.48l-.958.287.003.011.004.011.95-.309zm.46 1.68l-.976.222h1.951l-.975-.222zm.42-1.68l.964.265-.964-.265zm.48-1.48l-.93-.37-.004.013.934.357zm8.06-20.22l.929.37.007-.018.007-.02-.943-.332zm.46-.62l.635.772.005-.004-.64-.768zm3.034-.677l-11.68 28.66 1.852.754 11.68-28.66-1.852-.754zM101.121 28h-3.48v2h3.48v-2zm-2.554.623L86.887-.037l-1.852.754 11.68 28.66 1.852-.754zM85.96 1.34h3.1v-2h-3.1v2zm3.1 0c.09 0 .145.011.174.02a.093.093 0 01.035.016L90.53-.176c-.434-.353-.955-.484-1.47-.484v2zm.209.036a.6.6 0 01.182.255L91.31.89a2.598 2.598 0 00-.778-1.065L89.27 1.376zm.182.255l8.08 20.22 1.857-.742L91.31.889l-1.857.742zm8.075 20.206c.163.428.322.897.476 1.41l1.915-.574c-.166-.554-.34-1.07-.523-1.55l-1.868.714zm.483 1.432c.163.503.308 1.033.435 1.593l1.951-.444a20.37 20.37 0 00-.484-1.767l-1.902.618zm2.386 1.593c.13-.574.266-1.12.409-1.637l-1.929-.53a39.79 39.79 0 00-.43 1.723l1.95.444zm.409-1.637c.139-.506.289-.969.45-1.388l-1.868-.714a17.101 17.101 0 00-.51 1.572l1.928.53zm.445-1.375l8.06-20.22-1.858-.74-8.06 20.22 1.858.74zm8.074-20.257c.007-.02.035-.084.152-.181l-1.271-1.544a2.415 2.415 0 00-.767 1.06l1.886.665zm.157-.185c.048-.04.103-.068.22-.068v-2c-.551 0-1.068.172-1.501.532l1.281 1.536zm.22-.068h3.1v-2h-3.1v2zM142.051 29v1h1v-1h-1zm-3.88 0h-1v1h1v-1zm0-28.66v-1h-1v1h1zm3.88 0h1v-1h-1v1zm0 27.66h-3.88v2h3.88v-2zm-2.88 1V.34h-2V29h2zm-1-27.66h3.88v-2h-3.88v2zm2.88-1V29h2V.34h-2zm53.151 0h1v-1h-1v1zm0 28.66v1h1v-1h-1zm-2.72-.16l-.471.882.012.006.012.006.447-.894zm-.6-.54l-.793.609.008.01.785-.619zm-16.58-21.6l.793-.609-2.06-2.683.27 3.372.997-.08zm.06.98l.999-.042-.999.042zm.02 21.32v1h1v-1h-1zm-3.4 0h-1v1h1v-1zm0-28.66v-1h-1v1h1zm2.44.04l-.217.976.053.012.053.006.111-.994zm.32.1l-.496.868.049.029.053.022.394-.919zm.28.2l-.707.707.027.027.029.025.651-.759zm.3.32l.793-.61-.006-.007-.006-.008-.781.625zm16.58 21.58l-.793.61 2.048 2.665-.258-3.352-.997.077zm-.08-1l-.999.04.001.021.001.022.997-.083zm-.02-21.24v-1h-1v1h1zm2.4 0V29h2V.34h-2zm1 27.66h-1.94v2h1.94v-2zm-1.94 0c-.194 0-.292-.034-.333-.054l-.894 1.788c.386.193.808.266 1.227.266v-2zm-.31-.042c-.038-.02-.137-.09-.285-.278l-1.57 1.24c.252.319.552.61.914.802l.941-1.764zm-.277-.267l-16.58-21.6-1.586 1.218 16.58 21.6 1.586-1.218zM173.305 6.78c.026.32.045.635.058.942l1.998-.084a28.348 28.348 0 00-.062-1.018l-1.994.16zm.058.942c.013.308.019.594.019.858h2c0-.296-.007-.61-.021-.942l-1.998.084zm.019.858V29h2V8.58h-2zm1 19.42h-3.4v2h3.4v-2zm-2.4 1V.34h-2V29h2zm-1-27.66h2v-2h-2v2zm2 0c.127 0 .197.01.223.016l.434-1.952a3.052 3.052 0 00-.657-.064v2zm.329.034c.002 0-.005 0-.017-.005a.232.232 0 01-.048-.02l.992-1.737a1.822 1.822 0 00-.706-.226l-.221 1.988zm.037.025a.245.245 0 01-.047-.025c-.005-.003 0 0 .014.013l1.414-1.414a1.917 1.917 0 00-.593-.412l-.788 1.838zm.023.04c.032.027.089.084.17.186l1.562-1.25a3.385 3.385 0 00-.43-.454l-1.302 1.518zm.158.17l16.58 21.58 1.586-1.218L175.115.39l-1.586 1.218zm18.37 20.894a160.33 160.33 0 00-.081-1.006l-1.993.166c.027.318.053.649.08.994l1.994-.154zm-.078-.963a22.335 22.335 0 01-.019-.9h-2c0 .308.007.635.021.98l1.998-.08zm-.019-.9V.34h-2v20.3h2zm-1-19.3h3.4v-2h-3.4v2zm55.607 13.88h1v-1h-1v1zm0 11l.585.81.415-.299v-.511h-1zm-4.62 2.34l.297.955.005-.002-.302-.953zm-11.6-.3l-.362.932.005.002.357-.934zm-4.76-3l-.704.71.008.008.696-.718zm-3.02-4.64l.931-.365-.931.365zm-.04-11.92l-.933-.36-.003.007.936.353zm2.94-4.62l.711.703.003-.003-.714-.7zm4.62-3l.363.932-.363-.932zm9.24-.8l-.176.985.014.002.162-.987zm2.7.72l-.361.933.013.005.348-.938zm2.3 1.14l-.54.842.011.007.529-.849zm1.98 1.5l.848.53.441-.707-.615-.561-.674.738zm-1.1 1.76l.838.545.005-.007.005-.008-.848-.53zm-.68.52l.242.97.016-.004.016-.004-.274-.962zm-.9-.2l.514-.858-.01-.006-.504.864zm-1.1-.68l.542-.84-.542.84zm-1.52-.76l-.397.918.013.005.012.005.372-.928zm-2.1-.64l-.212.977.003.001.209-.978zm-7.24.54l.37.93.008-.004-.378-.926zm-3.34 2.26l.727.687.004-.005-.731-.682zm-2.12 3.56l.942.335.001-.003-.943-.332zm.02 9.52l-.943.335.004.01.939-.345zm2.2 3.62l-.727.688.01.01.717-.698zm11.6 2.6l.274.962.009-.003-.283-.959zm3.04-1.26l.475.88.525-.284v-.596h-1zm0-6.3h1v-1h-1v1zm-5.08-.22l-.707.707.015.015.016.015.676-.737zm-.22-2.74v-1h-1v1h1zm7.8 0v11h2v-11h-2zm.414 10.19a15.224 15.224 0 01-4.336 2.197l.604 1.906a17.222 17.222 0 004.903-2.482l-1.171-1.622zm-4.332 2.195c-1.517.473-3.202.715-5.062.715v2c2.033 0 3.922-.265 5.657-.805l-.595-1.91zm-5.062.715c-2.205 0-4.161-.337-5.884-.994l-.713 1.868c1.984.757 4.188 1.126 6.597 1.126v-2zm-5.878-.992c-1.739-.676-3.21-1.606-4.426-2.786l-1.392 1.436c1.423 1.38 3.126 2.45 5.094 3.214l.724-1.864zm-4.419-2.779c-1.202-1.19-2.134-2.617-2.792-4.294l-1.862.73c.755 1.923 1.836 3.59 3.247 4.986l1.407-1.422zm-2.792-4.294c-.656-1.671-.991-3.525-.991-5.575h-2c0 2.27.372 4.376 1.129 6.305l1.862-.73zm-.991-5.575c0-2.082.323-3.954.955-5.627l-1.871-.706c-.728 1.927-1.084 4.042-1.084 6.333h2zm.953-5.62c.647-1.681 1.555-3.102 2.718-4.277l-1.422-1.406c-1.371 1.385-2.423 3.044-3.162 4.964l1.866.718zm2.721-4.28c1.16-1.185 2.578-2.11 4.269-2.768l-.726-1.864c-1.936.755-3.598 1.83-4.972 3.232l1.429 1.4zm4.269-2.768c1.681-.656 3.582-.992 5.717-.992v-2c-2.346 0-4.498.37-6.443 1.128l.726 1.864zm5.717-.992c1.083 0 2.077.083 2.984.245l.351-1.97a19.035 19.035 0 00-3.335-.275v2zm2.998.247c.912.15 1.745.373 2.501.666l.722-1.866a14.558 14.558 0 00-2.899-.774l-.324 1.974zm2.514.67a10.94 10.94 0 012.108 1.045l1.08-1.684a12.94 12.94 0 00-2.492-1.236l-.696 1.876zm2.119 1.052c.655.408 1.266.87 1.834 1.39l1.349-1.477a14.553 14.553 0 00-2.126-1.61l-1.057 1.697zm1.661.121l-1.1 1.76 1.696 1.06 1.1-1.76-1.696-1.06zm-1.091 1.745c-.055.084-.09.096-.116.103l.549 1.924a2.183 2.183 0 001.244-.937l-1.677-1.09zm-.084.095c.034-.009.051-.003.035-.006a.646.646 0 01-.178-.081l-1.029 1.714c.466.28 1.043.467 1.657.313l-.485-1.94zm-.153-.094a27.566 27.566 0 01-1.062-.656l-1.084 1.68c.422.273.802.508 1.138.704l1.008-1.728zm-1.062-.656a9.945 9.945 0 00-1.691-.848l-.743 1.856a7.979 7.979 0 011.35.672l1.084-1.68zm-1.666-.838c-.662-.286-1.428-.517-2.288-.7l-.417 1.956c.767.163 1.401.36 1.912.58l.793-1.836zm-2.284-.7c-.89-.192-1.917-.282-3.072-.282v2c1.058 0 1.937.083 2.648.237l.424-1.954zm-3.072-.282c-1.725 0-3.316.285-4.758.874l.756 1.852c1.17-.478 2.5-.726 4.002-.726v-2zm-4.75.87a10.1 10.1 0 00-3.702 2.508l1.463 1.364a8.098 8.098 0 012.979-2.013l-.74-1.858zm-3.697 2.503c-1.026 1.086-1.802 2.397-2.336 3.915l1.886.664c.452-1.282 1.09-2.344 1.903-3.205l-1.453-1.374zm-2.335 3.912c-.538 1.511-.798 3.187-.798 5.015h2c0-1.639.233-3.083.682-4.345l-1.884-.67zm-.798 5.015c0 1.893.266 3.622.817 5.175l1.885-.67c-.462-1.3-.702-2.798-.702-4.505h-2zm.821 5.185c.563 1.529 1.364 2.855 2.413 3.963l1.452-1.375c-.845-.893-1.51-1.98-1.988-3.278l-1.877.69zm2.422 3.972c1.067 1.097 2.352 1.928 3.84 2.497l.714-1.868c-1.232-.471-2.268-1.147-3.121-2.023l-1.433 1.394zm3.84 2.497c1.491.57 3.141.846 4.937.846v-2c-1.591 0-2.994-.244-4.223-.714l-.714 1.868zm4.937.846c1.404 0 2.68-.154 3.814-.479l-.549-1.922c-.918.262-2.003.401-3.265.401v2zm3.823-.48a16.755 16.755 0 003.232-1.34l-.951-1.76a14.67 14.67 0 01-2.847 1.18l.566 1.92zm3.757-2.22v-6.3h-2v6.3h2zm-1-7.3h-4.46v2h4.46v-2zm-4.46 0c-.03 0-.03-.004-.011.003a.181.181 0 01.066.04l-1.351 1.474a1.88 1.88 0 001.296.483v-2zm.087.073a.273.273 0 01.073.167h-2c0 .47.173.907.513 1.247l1.414-1.414zm.073.167v-2.2h-2v2.2h2zm-1-1.2h8.8v-2h-8.8v2z" fill="#000" mask="url(#a)"/></g><defs><filter id="filter0_d_419_16819" x=".66" y=".02" width="249.749" height="37.3" filterUnits="userSpaceOnUse" color-interpolation-filters="sRGB"><feFlood flood-opacity="0" result="BackgroundImageFix"/><feColorMatrix in="SourceAlpha" values="0 0 0 0 0 0 0 0 0 0 0 0 0 0 0 0 0 0 127 0" result="hardAlpha"/><feOffset dy="4"/><feGaussianBlur stdDeviation="2"/><feComposite in2="hardAlpha" operator="out"/><feColorMatrix values="0 0 0 0 0 0 0 0 0 0 0 0 0 0 0 0 0 0 0.25 0"/><feBlend in2="BackgroundImageFix" result="effect1_dropShadow_419_16819"/><feBlend in="SourceGraphic" in2="effect1_dropShadow_419_16819" result="shape"/></filter></defs></svg>