<svg width="251" height="38" viewBox="0 0 251 38" fill="none" xmlns="http://www.w3.org/2000/svg">
<g filter="url(#filter0_d_419_16819)">
<mask id="path-1-outside-1_419_16819" maskUnits="userSpaceOnUse" x="3" y="-1" width="245" height="32" fill="black">
<rect fill="white" x="3" y="-1" width="245" height="32"/>
<path d="M29.5 14.68C29.5 16.8267 29.16 18.78 28.48 20.54C27.8 22.3 26.84 23.8067 25.6 25.06C24.36 26.3133 22.8667 27.2867 21.12 27.98C19.3867 28.66 17.4667 29 15.36 29H4.66V0.339998H15.36C17.4667 0.339998 19.3867 0.686665 21.12 1.38C22.8667 2.06 24.36 3.03333 25.6 4.3C26.84 5.55333 27.8 7.06 28.48 8.82C29.16 10.58 29.5 12.5333 29.5 14.68ZM25.52 14.68C25.52 12.92 25.28 11.3467 24.8 9.96C24.32 8.57333 23.64 7.4 22.76 6.44C21.88 5.48 20.8133 4.74667 19.56 4.24C18.3067 3.73333 16.9067 3.48 15.36 3.48H8.54V25.86H15.36C16.9067 25.86 18.3067 25.6067 19.56 25.1C20.8133 24.5933 21.88 23.8667 22.76 22.92C23.64 21.96 24.32 20.7867 24.8 19.4C25.28 18.0133 25.52 16.44 25.52 14.68ZM60.5697 29H56.6897V0.339998H60.5697V29ZM112.801 0.339998L101.121 29H97.6406L85.9606 0.339998H89.0606C89.4073 0.339998 89.6873 0.426665 89.9006 0.599998C90.114 0.773332 90.274 0.993332 90.3806 1.26L98.4606 21.48C98.634 21.9333 98.8006 22.4267 98.9606 22.96C99.134 23.4933 99.2873 24.0533 99.4206 24.64C99.554 24.0533 99.694 23.4933 99.8406 22.96C99.9873 22.4267 100.147 21.9333 100.321 21.48L108.381 1.26C108.461 1.03333 108.614 0.826665 108.841 0.639998C109.081 0.439998 109.367 0.339998 109.701 0.339998H112.801ZM142.051 29H138.171V0.339998H142.051V29ZM194.202 0.339998V29H192.262C191.955 29 191.695 28.9467 191.482 28.84C191.282 28.7333 191.082 28.5533 190.882 28.3L174.302 6.7C174.329 7.03333 174.349 7.36 174.362 7.68C174.375 8 174.382 8.3 174.382 8.58V29H170.982V0.339998H172.982C173.155 0.339998 173.302 0.353331 173.422 0.379998C173.542 0.393332 173.649 0.426665 173.742 0.479998C173.835 0.519998 173.929 0.586665 174.022 0.68C174.115 0.759999 174.215 0.866665 174.322 0.999998L190.902 22.58C190.875 22.2333 190.849 21.9 190.822 21.58C190.809 21.2467 190.802 20.9333 190.802 20.64V0.339998H194.202ZM246.409 15.22V26.22C244.969 27.26 243.429 28.04 241.789 28.56C240.162 29.0667 238.375 29.32 236.429 29.32C234.122 29.32 232.042 28.9667 230.189 28.26C228.335 27.54 226.749 26.54 225.429 25.26C224.122 23.9667 223.115 22.42 222.409 20.62C221.702 18.82 221.349 16.84 221.349 14.68C221.349 12.4933 221.689 10.5 222.369 8.7C223.062 6.9 224.042 5.36 225.309 4.08C226.575 2.78667 228.115 1.78667 229.929 1.08C231.742 0.373332 233.769 0.0199976 236.009 0.0199976C237.142 0.0199976 238.195 0.106664 239.169 0.279998C240.142 0.439999 241.042 0.679999 241.869 0.999998C242.695 1.30666 243.462 1.68667 244.169 2.14C244.875 2.58 245.535 3.08 246.149 3.64L245.049 5.4C244.875 5.66667 244.649 5.84 244.369 5.92C244.102 5.98667 243.802 5.92 243.469 5.72C243.149 5.53333 242.782 5.30666 242.369 5.04C241.955 4.77333 241.449 4.52 240.849 4.28C240.262 4.02666 239.562 3.81333 238.749 3.64C237.949 3.46667 236.995 3.38 235.889 3.38C234.275 3.38 232.815 3.64667 231.509 4.18C230.202 4.7 229.089 5.45333 228.169 6.44C227.249 7.41333 226.542 8.6 226.049 10C225.555 11.3867 225.309 12.9467 225.309 14.68C225.309 16.48 225.562 18.0933 226.069 19.52C226.589 20.9333 227.322 22.14 228.269 23.14C229.229 24.1267 230.389 24.88 231.749 25.4C233.109 25.92 234.635 26.18 236.329 26.18C237.662 26.18 238.842 26.0333 239.869 25.74C240.909 25.4333 241.922 25.0133 242.909 24.48V18.18H238.449C238.195 18.18 237.989 18.1067 237.829 17.96C237.682 17.8133 237.609 17.6333 237.609 17.42V15.22H246.409Z"/>
</mask>
<path d="M29.5 14.68C29.5 16.8267 29.16 18.78 28.48 20.54C27.8 22.3 26.84 23.8067 25.6 25.06C24.36 26.3133 22.8667 27.2867 21.12 27.98C19.3867 28.66 17.4667 29 15.36 29H4.66V0.339998H15.36C17.4667 0.339998 19.3867 0.686665 21.12 1.38C22.8667 2.06 24.36 3.03333 25.6 4.3C26.84 5.55333 27.8 7.06 28.48 8.82C29.16 10.58 29.5 12.5333 29.5 14.68ZM25.52 14.68C25.52 12.92 25.28 11.3467 24.8 9.96C24.32 8.57333 23.64 7.4 22.76 6.44C21.88 5.48 20.8133 4.74667 19.56 4.24C18.3067 3.73333 16.9067 3.48 15.36 3.48H8.54V25.86H15.36C16.9067 25.86 18.3067 25.6067 19.56 25.1C20.8133 24.5933 21.88 23.8667 22.76 22.92C23.64 21.96 24.32 20.7867 24.8 19.4C25.28 18.0133 25.52 16.44 25.52 14.68ZM60.5697 29H56.6897V0.339998H60.5697V29ZM112.801 0.339998L101.121 29H97.6406L85.9606 0.339998H89.0606C89.4073 0.339998 89.6873 0.426665 89.9006 0.599998C90.114 0.773332 90.274 0.993332 90.3806 1.26L98.4606 21.48C98.634 21.9333 98.8006 22.4267 98.9606 22.96C99.134 23.4933 99.2873 24.0533 99.4206 24.64C99.554 24.0533 99.694 23.4933 99.8406 22.96C99.9873 22.4267 100.147 21.9333 100.321 21.48L108.381 1.26C108.461 1.03333 108.614 0.826665 108.841 0.639998C109.081 0.439998 109.367 0.339998 109.701 0.339998H112.801ZM142.051 29H138.171V0.339998H142.051V29ZM194.202 0.339998V29H192.262C191.955 29 191.695 28.9467 191.482 28.84C191.282 28.7333 191.082 28.5533 190.882 28.3L174.302 6.7C174.329 7.03333 174.349 7.36 174.362 7.68C174.375 8 174.382 8.3 174.382 8.58V29H170.982V0.339998H172.982C173.155 0.339998 173.302 0.353331 173.422 0.379998C173.542 0.393332 173.649 0.426665 173.742 0.479998C173.835 0.519998 173.929 0.586665 174.022 0.68C174.115 0.759999 174.215 0.866665 174.322 0.999998L190.902 22.58C190.875 22.2333 190.849 21.9 190.822 21.58C190.809 21.2467 190.802 20.9333 190.802 20.64V0.339998H194.202ZM246.409 15.22V26.22C244.969 27.26 243.429 28.04 241.789 28.56C240.162 29.0667 238.375 29.32 236.429 29.32C234.122 29.32 232.042 28.9667 230.189 28.26C228.335 27.54 226.749 26.54 225.429 25.26C224.122 23.9667 223.115 22.42 222.409 20.62C221.702 18.82 221.349 16.84 221.349 14.68C221.349 12.4933 221.689 10.5 222.369 8.7C223.062 6.9 224.042 5.36 225.309 4.08C226.575 2.78667 228.115 1.78667 229.929 1.08C231.742 0.373332 233.769 0.0199976 236.009 0.0199976C237.142 0.0199976 238.195 0.106664 239.169 0.279998C240.142 0.439999 241.042 0.679999 241.869 0.999998C242.695 1.30666 243.462 1.68667 244.169 2.14C244.875 2.58 245.535 3.08 246.149 3.64L245.049 5.4C244.875 5.66667 244.649 5.84 244.369 5.92C244.102 5.98667 243.802 5.92 243.469 5.72C243.149 5.53333 242.782 5.30666 242.369 5.04C241.955 4.77333 241.449 4.52 240.849 4.28C240.262 4.02666 239.562 3.81333 238.749 3.64C237.949 3.46667 236.995 3.38 235.889 3.38C234.275 3.38 232.815 3.64667 231.509 4.18C230.202 4.7 229.089 5.45333 228.169 6.44C227.249 7.41333 226.542 8.6 226.049 10C225.555 11.3867 225.309 12.9467 225.309 14.68C225.309 16.48 225.562 18.0933 226.069 19.52C226.589 20.9333 227.322 22.14 228.269 23.14C229.229 24.1267 230.389 24.88 231.749 25.4C233.109 25.92 234.635 26.18 236.329 26.18C237.662 26.18 238.842 26.0333 239.869 25.74C240.909 25.4333 241.922 25.0133 242.909 24.48V18.18H238.449C238.195 18.18 237.989 18.1067 237.829 17.96C237.682 17.8133 237.609 17.6333 237.609 17.42V15.22H246.409Z" fill="white"/>
<path d="M25.6 25.06L24.8891 24.3567L24.8891 24.3567L25.6 25.06ZM21.12 27.98L21.4852 28.9109L21.4889 28.9095L21.12 27.98ZM4.66 29H3.66V30H4.66V29ZM4.66 0.339998V-0.660002H3.66V0.339998H4.66ZM21.12 1.38L20.7486 2.30852L20.7572 2.31187L21.12 1.38ZM25.6 4.3L24.8854 4.99955L24.8891 5.00332L25.6 4.3ZM28.48 8.82L29.4128 8.4596L29.4128 8.4596L28.48 8.82ZM19.56 4.24L19.1852 5.16711L19.1852 5.16711L19.56 4.24ZM8.54 3.48V2.48H7.54V3.48H8.54ZM8.54 25.86H7.54V26.86H8.54V25.86ZM19.56 25.1L19.1852 24.1729L19.1852 24.1729L19.56 25.1ZM22.76 22.92L23.4924 23.6009L23.4972 23.5957L22.76 22.92ZM24.8 19.4L25.745 19.7271L25.745 19.7271L24.8 19.4ZM28.5 14.68C28.5 16.7202 28.1771 18.5493 27.5472 20.1796L29.4128 20.9004C30.1429 19.0107 30.5 16.9331 30.5 14.68H28.5ZM27.5472 20.1796C26.9133 21.8204 26.0257 23.2079 24.8891 24.3567L26.3109 25.7633C27.6543 24.4054 28.6867 22.7796 29.4128 20.9004L27.5472 20.1796ZM24.8891 24.3567C23.7526 25.5055 22.3779 26.4048 20.7511 27.0505L21.4889 28.9095C23.3554 28.1686 24.9674 27.1212 26.3109 25.7633L24.8891 24.3567ZM20.7548 27.0491C19.1521 27.6778 17.358 28 15.36 28V30C17.5753 30 19.6212 29.6422 21.4852 28.9109L20.7548 27.0491ZM15.36 28H4.66V30H15.36V28ZM5.66 29V0.339998H3.66V29H5.66ZM4.66 1.34H15.36V-0.660002H4.66V1.34ZM15.36 1.34C17.3557 1.34 19.1476 1.66807 20.7486 2.30848L21.4914 0.451523C19.6257 -0.294743 17.5776 -0.660002 15.36 -0.660002V1.34ZM20.7572 2.31187C22.3792 2.94333 23.7505 3.84022 24.8854 4.99954L26.3146 3.60046C24.9695 2.22644 23.3541 1.17667 21.4828 0.448128L20.7572 2.31187ZM24.8891 5.00332C26.0257 6.1521 26.9133 7.53962 27.5472 9.1804L29.4128 8.4596C28.6867 6.58038 27.6543 4.95457 26.3109 3.59668L24.8891 5.00332ZM27.5472 9.1804C28.1771 10.8107 28.5 12.6398 28.5 14.68H30.5C30.5 12.4269 30.1429 10.3493 29.4128 8.4596L27.5472 9.1804ZM26.52 14.68C26.52 12.8302 26.2678 11.1434 25.745 9.63289L23.855 10.2871C24.2922 11.55 24.52 13.0098 24.52 14.68H26.52ZM25.745 9.63289C25.2259 8.1334 24.4806 6.83708 23.4972 5.76428L22.0228 7.11572C22.7994 7.96292 23.4141 9.01327 23.855 10.2871L25.745 9.63289ZM23.4972 5.76428C22.5127 4.69034 21.3207 3.87316 19.9348 3.31289L19.1852 5.16711C20.306 5.62018 21.2473 6.26966 22.0228 7.11572L23.4972 5.76428ZM19.9348 3.31289C18.5465 2.75165 17.0168 2.48 15.36 2.48V4.48C16.7966 4.48 18.0669 4.71501 19.1852 5.16711L19.9348 3.31289ZM15.36 2.48H8.54V4.48H15.36V2.48ZM7.54 3.48V25.86H9.54V3.48H7.54ZM8.54 26.86H15.36V24.86H8.54V26.86ZM15.36 26.86C17.0168 26.86 18.5465 26.5883 19.9348 26.0271L19.1852 24.1729C18.0669 24.625 16.7966 24.86 15.36 24.86V26.86ZM19.9348 26.0271C21.3175 25.4681 22.5081 24.6597 23.4924 23.6008L22.0276 22.2392C21.2519 23.0736 20.3091 23.7185 19.1852 24.1729L19.9348 26.0271ZM23.4972 23.5957C24.4806 22.5229 25.2259 21.2266 25.745 19.7271L23.855 19.0729C23.4141 20.3467 22.7994 21.3971 22.0228 22.2443L23.4972 23.5957ZM25.745 19.7271C26.2678 18.2166 26.52 16.5298 26.52 14.68H24.52C24.52 16.3502 24.2922 17.81 23.855 19.0729L25.745 19.7271ZM60.5697 29V30H61.5697V29H60.5697ZM56.6897 29H55.6897V30H56.6897V29ZM56.6897 0.339998V-0.660002H55.6897V0.339998H56.6897ZM60.5697 0.339998H61.5697V-0.660002H60.5697V0.339998ZM60.5697 28H56.6897V30H60.5697V28ZM57.6897 29V0.339998H55.6897V29H57.6897ZM56.6897 1.34H60.5697V-0.660002H56.6897V1.34ZM59.5697 0.339998V29H61.5697V0.339998H59.5697ZM112.801 0.339998L113.727 0.717398L114.288 -0.660002H112.801V0.339998ZM101.121 29V30H101.793L102.047 29.3774L101.121 29ZM97.6406 29L96.7146 29.3774L96.9683 30H97.6406V29ZM85.9606 0.339998V-0.660002H84.4732L85.0346 0.717398L85.9606 0.339998ZM90.3806 1.26L91.3092 0.888924L91.3091 0.888607L90.3806 1.26ZM98.4606 21.48L99.3947 21.1229L99.392 21.1159L99.3892 21.1089L98.4606 21.48ZM98.9606 22.96L98.0028 23.2473L98.0061 23.2583L98.0096 23.2691L98.9606 22.96ZM99.4206 24.64L98.4455 24.8616H100.396L99.4206 24.64ZM99.8406 22.96L100.805 23.2252L100.805 23.2252L99.8406 22.96ZM100.321 21.48L99.3916 21.1097L99.3866 21.1229L100.321 21.48ZM108.381 1.26L109.31 1.63028L109.317 1.61169L109.324 1.59282L108.381 1.26ZM108.841 0.639998L109.476 1.41194L109.481 1.40822L108.841 0.639998ZM111.875 -0.0374013L100.195 28.6226L102.047 29.3774L113.727 0.717398L111.875 -0.0374013ZM101.121 28H97.6406V30H101.121V28ZM98.5667 28.6226L86.8867 -0.0374013L85.0346 0.717398L96.7146 29.3774L98.5667 28.6226ZM85.9606 1.34H89.0606V-0.660002H85.9606V1.34ZM89.0606 1.34C89.1515 1.34 89.2063 1.35143 89.2349 1.36028C89.2611 1.36837 89.269 1.37525 89.27 1.37611L90.5312 -0.176115C90.0972 -0.528726 89.5756 -0.660002 89.0606 -0.660002V1.34ZM89.27 1.37611C89.3452 1.4372 89.4058 1.51542 89.4521 1.63139L91.3091 0.888607C91.1422 0.471243 90.8827 0.109465 90.5312 -0.176115L89.27 1.37611ZM89.452 1.63107L97.532 21.8511L99.3892 21.1089L91.3092 0.888924L89.452 1.63107ZM97.5266 21.8371C97.69 22.2645 97.8489 22.7342 98.0028 23.2473L99.9184 22.6727C99.7524 22.1191 99.578 21.6022 99.3947 21.1229L97.5266 21.8371ZM98.0096 23.2691C98.1729 23.7717 98.3184 24.3023 98.4455 24.8616L100.396 24.4184C100.256 23.8043 100.095 23.215 99.9117 22.6509L98.0096 23.2691ZM100.396 24.8616C100.526 24.2883 100.662 23.7429 100.805 23.2252L98.8764 22.6948C98.7255 23.2438 98.5819 23.8184 98.4455 24.4184L100.396 24.8616ZM100.805 23.2252C100.944 22.7187 101.094 22.2565 101.255 21.8371L99.3866 21.1229C99.2002 21.6102 99.0305 22.1346 98.8764 22.6948L100.805 23.2252ZM101.25 21.8503L109.31 1.63028L107.452 0.889717L99.3917 21.1097L101.25 21.8503ZM109.324 1.59282C109.331 1.57214 109.359 1.50853 109.476 1.41193L108.205 -0.131932C107.869 0.144802 107.59 0.49452 107.438 0.927181L109.324 1.59282ZM109.481 1.40822C109.529 1.36846 109.584 1.34 109.701 1.34V-0.660002C109.15 -0.660002 108.633 -0.488462 108.2 -0.128224L109.481 1.40822ZM109.701 1.34H112.801V-0.660002H109.701V1.34ZM142.051 29V30H143.051V29H142.051ZM138.171 29H137.171V30H138.171V29ZM138.171 0.339998V-0.660002H137.171V0.339998H138.171ZM142.051 0.339998H143.051V-0.660002H142.051V0.339998ZM142.051 28H138.171V30H142.051V28ZM139.171 29V0.339998H137.171V29H139.171ZM138.171 1.34H142.051V-0.660002H138.171V1.34ZM141.051 0.339998V29H143.051V0.339998H141.051ZM194.202 0.339998H195.202V-0.660002H194.202V0.339998ZM194.202 29V30H195.202V29H194.202ZM191.482 28.84L191.011 29.7224L191.023 29.7285L191.035 29.7344L191.482 28.84ZM190.882 28.3L190.089 28.909L190.097 28.9196L190.882 28.3ZM174.302 6.7L175.095 6.09111L173.035 3.4076L173.305 6.77975L174.302 6.7ZM174.362 7.68L175.361 7.63837L175.361 7.63837L174.362 7.68ZM174.382 29V30H175.382V29H174.382ZM170.982 29H169.982V30H170.982V29ZM170.982 0.339998V-0.660002H169.982V0.339998H170.982ZM173.422 0.379998L173.205 1.35619L173.258 1.36791L173.311 1.37388L173.422 0.379998ZM173.742 0.479998L173.246 1.34824L173.295 1.37662L173.348 1.39914L173.742 0.479998ZM174.022 0.68L173.315 1.3871L173.342 1.41426L173.371 1.43926L174.022 0.68ZM174.322 0.999998L175.115 0.390749L175.109 0.382966L175.103 0.375302L174.322 0.999998ZM190.902 22.58L190.109 23.1892L192.157 25.8546L191.899 22.5033L190.902 22.58ZM190.822 21.58L189.823 21.62L189.824 21.6415L189.825 21.663L190.822 21.58ZM190.802 0.339998V-0.660002H189.802V0.339998H190.802ZM193.202 0.339998V29H195.202V0.339998H193.202ZM194.202 28H192.262V30H194.202V28ZM192.262 28C192.068 28 191.97 27.9659 191.929 27.9456L191.035 29.7344C191.421 29.9275 191.843 30 192.262 30V28ZM191.952 27.9576C191.914 27.9373 191.815 27.8679 191.667 27.6804L190.097 28.9196C190.349 29.2388 190.649 29.5293 191.011 29.7224L191.952 27.9576ZM191.675 27.6911L175.095 6.09111L173.509 7.30889L190.089 28.9089L191.675 27.6911ZM173.305 6.77975C173.331 7.10094 173.35 7.41489 173.363 7.72163L175.361 7.63837C175.347 7.30511 175.326 6.96572 175.299 6.62025L173.305 6.77975ZM173.363 7.72163C173.376 8.02968 173.382 8.31568 173.382 8.58H175.382C175.382 8.28432 175.375 7.97031 175.361 7.63837L173.363 7.72163ZM173.382 8.58V29H175.382V8.58H173.382ZM174.382 28H170.982V30H174.382V28ZM171.982 29V0.339998H169.982V29H171.982ZM170.982 1.34H172.982V-0.660002H170.982V1.34ZM172.982 1.34C173.109 1.34 173.179 1.35032 173.205 1.35619L173.639 -0.59619C173.425 -0.643655 173.201 -0.660002 172.982 -0.660002V1.34ZM173.311 1.37388C173.313 1.37403 173.306 1.3734 173.294 1.36948C173.281 1.36547 173.264 1.35876 173.246 1.34824L174.238 -0.388248C174.012 -0.517252 173.771 -0.587321 173.532 -0.613885L173.311 1.37388ZM173.348 1.39914C173.321 1.38747 173.305 1.37688 173.301 1.37373C173.296 1.37069 173.301 1.3737 173.315 1.3871L174.729 -0.0271024C174.571 -0.184723 174.375 -0.336479 174.136 -0.439146L173.348 1.39914ZM173.371 1.43926C173.403 1.46632 173.46 1.52288 173.541 1.62469L175.103 0.375302C174.971 0.210453 174.828 0.05368 174.673 -0.0792609L173.371 1.43926ZM173.529 1.60925L190.109 23.1892L191.695 21.9708L175.115 0.390749L173.529 1.60925ZM191.899 22.5033C191.872 22.1547 191.845 21.8192 191.818 21.497L189.825 21.663C189.852 21.9808 189.878 22.312 189.905 22.6567L191.899 22.5033ZM191.821 21.54C191.808 21.2182 191.802 20.9183 191.802 20.64H189.802C189.802 20.9483 189.809 21.2751 189.823 21.62L191.821 21.54ZM191.802 20.64V0.339998H189.802V20.64H191.802ZM190.802 1.34H194.202V-0.660002H190.802V1.34ZM246.409 15.22H247.409V14.22H246.409V15.22ZM246.409 26.22L246.994 27.0307L247.409 26.7313V26.22H246.409ZM241.789 28.56L242.086 29.5148L242.091 29.5132L241.789 28.56ZM230.189 28.26L229.827 29.1921L229.832 29.1944L230.189 28.26ZM225.429 25.26L224.725 25.9708L224.733 25.9779L225.429 25.26ZM222.409 20.62L223.34 20.2546L223.34 20.2546L222.409 20.62ZM222.369 8.7L221.436 8.34055L221.433 8.3466L222.369 8.7ZM225.309 4.08L226.02 4.7834L226.023 4.7797L225.309 4.08ZM229.929 1.08L230.292 2.01175L230.292 2.01175L229.929 1.08ZM239.169 0.279998L238.993 1.2646L239.007 1.26675L239.169 0.279998ZM241.869 0.999998L241.508 1.93266L241.521 1.93756L241.869 0.999998ZM244.169 2.14L243.629 2.98177L243.64 2.9889L244.169 2.14ZM246.149 3.64L246.997 4.17L247.438 3.46337L246.823 2.90151L246.149 3.64ZM245.049 5.4L245.887 5.94499L245.892 5.93754L245.897 5.93L245.049 5.4ZM244.369 5.92L244.611 6.89014L244.627 6.8861L244.643 6.88152L244.369 5.92ZM243.469 5.72L243.983 4.86244L243.973 4.85622L243.469 5.72ZM242.369 5.04L242.911 4.1997L242.911 4.1997L242.369 5.04ZM240.849 4.28L240.452 5.19806L240.465 5.20344L240.477 5.20848L240.849 4.28ZM238.749 3.64L238.537 4.61733L238.54 4.61804L238.749 3.64ZM231.509 4.18L231.879 5.10916L231.887 5.10585L231.509 4.18ZM228.169 6.44L228.896 7.12693L228.9 7.12197L228.169 6.44ZM226.049 10L226.991 10.3352L226.992 10.3323L226.049 10ZM226.069 19.52L225.126 19.8547L225.13 19.8653L226.069 19.52ZM228.269 23.14L227.542 23.8275L227.552 23.8374L228.269 23.14ZM239.869 25.74L240.143 26.7016L240.152 26.6992L239.869 25.74ZM242.909 24.48L243.384 25.3597L243.909 25.0762V24.48H242.909ZM242.909 18.18H243.909V17.18H242.909V18.18ZM237.829 17.96L237.122 18.6671L237.137 18.6825L237.153 18.6972L237.829 17.96ZM237.609 15.22V14.22H236.609V15.22H237.609ZM245.409 15.22V26.22H247.409V15.22H245.409ZM245.823 25.4093C244.467 26.3891 243.022 27.12 241.487 27.6068L242.091 29.5132C243.836 28.96 245.471 28.1309 246.994 27.0307L245.823 25.4093ZM241.491 27.6052C239.974 28.078 238.289 28.32 236.429 28.32V30.32C238.462 30.32 240.351 30.0553 242.086 29.5148L241.491 27.6052ZM236.429 28.32C234.224 28.32 232.268 27.9825 230.545 27.3256L229.832 29.1944C231.816 29.9509 234.02 30.32 236.429 30.32V28.32ZM230.551 27.3279C228.812 26.6523 227.341 25.7217 226.125 24.5421L224.733 25.9779C226.156 27.3583 227.859 28.4277 229.827 29.1921L230.551 27.3279ZM226.132 24.5493C224.93 23.359 223.998 21.9317 223.34 20.2546L221.478 20.9854C222.233 22.9083 223.314 24.5743 224.725 25.9707L226.132 24.5493ZM223.34 20.2546C222.684 18.5838 222.349 16.7295 222.349 14.68H220.349C220.349 16.9505 220.721 19.0562 221.478 20.9854L223.34 20.2546ZM222.349 14.68C222.349 12.5978 222.672 10.7261 223.304 9.0534L221.433 8.3466C220.705 10.2738 220.349 12.3889 220.349 14.68H222.349ZM223.302 9.05944C223.949 7.37891 224.857 5.95847 226.02 4.78339L224.598 3.3766C223.227 4.76152 222.175 6.42108 221.436 8.34056L223.302 9.05944ZM226.023 4.7797C227.183 3.59523 228.601 2.6708 230.292 2.01175L229.566 0.148252C227.63 0.90253 225.968 1.97811 224.594 3.3803L226.023 4.7797ZM230.292 2.01175C231.973 1.35646 233.874 1.02 236.009 1.02V-0.980002C233.663 -0.980002 231.511 -0.609793 229.566 0.148252L230.292 2.01175ZM236.009 1.02C237.092 1.02 238.086 1.10285 238.993 1.26451L239.344 -0.704513C238.305 -0.889518 237.193 -0.980002 236.009 -0.980002V1.02ZM239.007 1.26675C239.919 1.41682 240.752 1.64003 241.508 1.93257L242.23 0.0674298C241.332 -0.280032 240.365 -0.536822 239.331 -0.706759L239.007 1.26675ZM241.521 1.93756C242.284 2.22051 242.985 2.56901 243.629 2.98169L244.709 1.29831C243.939 0.804319 243.107 0.392818 242.217 0.0624318L241.521 1.93756ZM243.64 2.9889C244.295 3.39669 244.906 3.85976 245.474 4.37848L246.823 2.90151C246.164 2.30024 245.456 1.7633 244.697 1.2911L243.64 2.9889ZM245.301 3.11L244.201 4.87L245.897 5.93L246.997 4.17L245.301 3.11ZM244.21 4.85501C244.155 4.93948 244.12 4.95107 244.094 4.95848L244.643 6.88152C245.178 6.72893 245.595 6.39385 245.887 5.94499L244.21 4.85501ZM244.126 4.94986C244.16 4.94129 244.177 4.94749 244.161 4.94381C244.139 4.93903 244.081 4.92117 243.983 4.86251L242.954 6.57749C243.42 6.8568 243.997 7.04382 244.611 6.89014L244.126 4.94986ZM243.973 4.85622C243.669 4.67907 243.315 4.4607 242.911 4.1997L241.827 5.88029C242.249 6.15263 242.629 6.3876 242.965 6.58378L243.973 4.85622ZM242.911 4.1997C242.43 3.88937 241.862 3.60841 241.22 3.35152L240.477 5.20848C241.035 5.43158 241.481 5.6573 241.827 5.8803L242.911 4.1997ZM241.245 3.36194C240.583 3.07602 239.817 2.84518 238.957 2.66196L238.54 4.61804C239.307 4.78149 239.941 4.97731 240.452 5.19806L241.245 3.36194ZM238.961 2.66268C238.071 2.47006 237.044 2.38 235.889 2.38V4.38C236.947 4.38 237.826 4.46327 238.537 4.61732L238.961 2.66268ZM235.889 2.38C234.164 2.38 232.573 2.66535 231.131 3.25415L231.887 5.10585C233.057 4.62799 234.387 4.38 235.889 4.38V2.38ZM231.139 3.25087C229.701 3.82314 228.462 4.65865 227.437 5.75803L228.9 7.12197C229.715 6.24802 230.703 5.57686 231.879 5.10913L231.139 3.25087ZM227.442 5.75308C226.416 6.83868 225.64 8.15 225.106 9.66765L226.992 10.3323C227.444 9.05 228.082 7.98798 228.895 7.12692L227.442 5.75308ZM225.107 9.66481C224.569 11.1763 224.309 12.8523 224.309 14.68H226.309C226.309 13.0411 226.542 11.597 226.991 10.3352L225.107 9.66481ZM224.309 14.68C224.309 16.573 224.575 18.3024 225.126 19.8547L227.011 19.1853C226.549 17.8843 226.309 16.387 226.309 14.68H224.309ZM225.13 19.8653C225.693 21.3939 226.494 22.7201 227.543 23.8275L228.995 22.4525C228.15 21.5599 227.485 20.4728 227.007 19.1747L225.13 19.8653ZM227.552 23.8374C228.619 24.9341 229.904 25.7652 231.392 26.3341L232.106 24.4659C230.874 23.9948 229.838 23.3193 228.985 22.4426L227.552 23.8374ZM231.392 26.3341C232.883 26.9041 234.533 27.18 236.329 27.18V25.18C234.738 25.18 233.335 24.9359 232.106 24.4659L231.392 26.3341ZM236.329 27.18C237.733 27.18 239.009 27.0258 240.143 26.7015L239.594 24.7785C238.676 25.0409 237.591 25.18 236.329 25.18V27.18ZM240.152 26.6992C241.261 26.3721 242.338 25.925 243.384 25.3597L242.433 23.6003C241.506 24.1016 240.557 24.4945 239.586 24.7808L240.152 26.6992ZM243.909 24.48V18.18H241.909V24.48H243.909ZM242.909 17.18H238.449V19.18H242.909V17.18ZM238.449 17.18C238.419 17.18 238.419 17.1757 238.438 17.1826C238.448 17.1859 238.459 17.1912 238.472 17.1988C238.485 17.2064 238.496 17.2148 238.504 17.2228L237.153 18.6972C237.528 19.0408 237.99 19.18 238.449 19.18V17.18ZM238.536 17.2529C238.55 17.2674 238.573 17.2961 238.59 17.3377C238.607 17.3787 238.609 17.41 238.609 17.42H236.609C236.609 17.8901 236.782 18.327 237.122 18.6671L238.536 17.2529ZM238.609 17.42V15.22H236.609V17.42H238.609ZM237.609 16.22H246.409V14.22H237.609V16.22Z" fill="black" mask="url(#path-1-outside-1_419_16819)"/>
</g>
<defs>
<filter id="filter0_d_419_16819" x="0.659912" y="0.0200195" width="249.749" height="37.3" filterUnits="userSpaceOnUse" color-interpolation-filters="sRGB">
<feFlood flood-opacity="0" result="BackgroundImageFix"/>
<feColorMatrix in="SourceAlpha" type="matrix" values="0 0 0 0 0 0 0 0 0 0 0 0 0 0 0 0 0 0 127 0" result="hardAlpha"/>
<feOffset dy="4"/>
<feGaussianBlur stdDeviation="2"/>
<feComposite in2="hardAlpha" operator="out"/>
<feColorMatrix type="matrix" values="0 0 0 0 0 0 0 0 0 0 0 0 0 0 0 0 0 0 0.25 0"/>
<feBlend mode="normal" in2="BackgroundImageFix" result="effect1_dropShadow_419_16819"/>
<feBlend mode="normal" in="SourceGraphic" in2="effect1_dropShadow_419_16819" result="shape"/>
</filter>
</defs>
</svg>
